<svg xmlns="http://www.w3.org/2000/svg" xmlns:xlink="http://www.w3.org/1999/xlink" preserveAspectRatio="xMidYMid meet" version="1.0" viewBox="0.0 0.0 327.5 295.2" zoomAndPan="magnify" style="fill: rgb(122, 150, 241);" original_string_length="32163"><g id="__id185_sb5zsaz3fr"><path d="M269.777,10.444v141.778c0,5.768-4.676,10.444-10.444,10.444H10.444C4.676,162.666,0,157.99,0,152.222V10.444 C0,4.676,4.676,0,10.444,0h248.889C265.101,0,269.777,4.676,269.777,10.444z" style="fill: rgb(30, 64, 175);"/></g><g id="__id186_sb5zsaz3fr"><path d="M261.777,18.444v125.778c0,5.768-4.676,10.444-10.444,10.444H18.444C12.676,154.666,8,149.99,8,144.222V18.444 C8,12.676,12.676,8,18.444,8h232.889C257.101,8,261.777,12.676,261.777,18.444z" style="fill: rgb(244, 244, 237);"/></g><g id="__id187_sb5zsaz3fr"><path d="M325.362,294.166c0.21-2.42,1.04-14.1,0.84-45.06c-0.22-35.33-18.66-70.66-18.66-70.66l-3.11-6.67 c0,0-0.26-3.11-0.61-4c-0.35-0.88-1.18-1.66-2.13-1.65c-0.01,0.01-0.02,0.01-0.04,0.01c0.14-0.11,0.21-0.28,0.15-0.49 c-0.38-1.21-0.75-2.44-0.88-3.71c-0.13-1.28-0.08-2.58-0.06-3.86c0-0.14-0.05-0.25-0.12-0.32c1.7-4.22,3.45-8.42,5.22-12.6 c0.8-1.87,1.59-3.74,2.4-5.6c0.56-1.3,1.17-2.54,1.39-3.94c0.43-2.69,0.18-5.48-0.25-8.15c-0.46-2.83-1.14-5.81-2.55-8.32 c-3.37-5.91-8.77-10.29-15.47-11.78c-5.36-1.2-11.12-0.68-16.28,1.14c-1.91,0.68-3.82,1.53-5.46,2.74 c-0.56,0.41-1.03,0.86-1.45,1.36c-0.05,0-0.11,0.01-0.17,0.03c-3.53,1.31-6.24,4.17-7.74,7.58c-0.78,1.78-1.29,3.72-1.33,5.67 c-0.02,1.03,0.13,2.06,0.54,3.01c0.38,0.86,0.92,1.53,0.93,2.51c0.01,0.09,0.04,0.16,0.09,0.23c-0.01,1.44,0.05,2.89,0.07,4.33 c-1.33,0.25-1.94,3.09-1.94,5.74c0,0.59,0.03,1.18,0.09,1.76c-0.76,0.8-1.86,1.33-2.23,2.42c-0.38,1.11,0.17,2.19,0.83,3.06 c0.73,0.97,1.65,1.78,2.28,2.84c0.67,1.14,1.04,2.42,1.29,3.7c0.85,4.38,0.36,9.81,4.07,13.04c2.33,2.03,5.32,1.7,8.05,0.75 c0.22-0.08,0.44-0.16,0.67-0.24c0.37,1.42,0.85,2.81,1.27,4.22c0.44,1.48,0.59,2.99,0.64,4.52c0.01,0.32,0.27,0.48,0.52,0.48 c-0.18,0.09-0.37,0.19-0.56,0.28c-0.52,0.25-1.06,0.52-1.43,0.96c-1.33,1.59,0.27,5.83-0.25,7.84l-2.97,2.32 c-8.06,6.17-15.25,26.12-15.25,26.12s0.43,0.69,1.03,2.02c-0.94-1.66-1.97-3.27-3.04-4.8c-2.19-3.15-4.64-6.12-7.31-8.87 c-1.96-2.01-4.07-4.04-6.48-5.53c-0.62-0.38-1.32-0.78-2.05-0.89c-0.02,0-0.05-0.01-0.07-0.01c-0.42-0.06-0.84-0.07-1.27-0.05 c0.11-3.32-3.93-7.79-3.93-7.79l-0.42,0.16c-1.12-3.25-1-6.72-0.45-10.08c1.79-0.8,6.6-3.24,8.57-7.16c0.76-1.52,1.01-3.25,1.71-4.8 c0.69-1.5,1.75-2.8,2.68-4.16c1.68-2.47,2.97-5.27,3.27-8.24c0.3-2.97-0.48-6.12-2.49-8.32c-0.93-1.01-2.08-1.81-2.81-2.97 c-0.43-0.7-0.69-1.5-0.99-2.27c-2.83-7.17-10.65-12.02-18.33-11.37c-2.9,0.25-5.78,1.2-8.67,0.86c-1.85-0.22-3.61-0.96-5.45-1.17 c-2.17-0.24-4.42,0.27-6.26,1.44c-1.41,0.89-2.64,2.28-2.84,3.94c-0.2,1.66,0.97,3.52,2.64,3.63c0,0,0.31-0.19,0.71-0.4 c-3.58,2.91-5.45,7.38-6.21,11.86c-0.41,2.45-0.24,5.09-1.09,7.44c-0.45,1.26-1.3,2.13-2.43,2.81c-1.02,0.62-2.12,1.16-2.86,2.13 c-1.42,1.85-0.84,4.48,0.97,5.81c0.54,0.4,1.09,0.74,1.49,1.29c0.39,0.54,0.62,1.18,0.77,1.83c0.29,1.27,0.29,2.59,0.4,3.89 c0.13,1.52,0.35,3.04,0.68,4.54c0.3,1.38,0.62,2.85,1.27,4.12c1.22,2.36,4.02,2.93,6.43,3.24c0.95,0.12,1.91,0.17,2.86,0.18 c0.01,0,0.01,0.01,0.01,0.02c1.44,3.67,2.12,7.71,1.58,11.64l-5.31,2.08l-0.61,2.84c-1.83,0.71-3.63,1.5-5.34,2.48 c-2.43,1.39-4.59,3.18-6.58,5.15c-3.9,3.84-7.36,8.13-10.53,12.58c-3.62,5.08-6.85,10.42-9.94,15.84 c-1.59-3.94-10.01-24.86-12.43-30.29c-0.39-0.72-1.11-1.14-2.08-1.3c-0.01-0.01-0.01-0.02-0.01-0.04c-1.36-2.7-2.77-5.38-4.21-8.03 c-2.64-4.86-5.35-9.71-8.47-14.27c-1.15-1.68-2.35-3.41-3.85-4.81c-1-0.94-2.25-1.62-3.47-2.24c-1.71-0.87-3.51-1.53-5.38-1.94 c-3.17-0.7-6.46-0.9-9.7-0.98c-1.72-0.04-3.44-0.06-5.16-0.1c-1.66-0.05-3.38,0.16-4.82,1.05c-0.79,0.49-1.79,1.41-1.48,2.46 c0.14,0.47,0.54,0.78,0.97,0.96c0.74,0.3,1.6,0.41,2.37,0.59c1.85,0.44,3.7,0.89,5.52,1.46c1.41,0.44,2.96,0.91,4.17,1.8 c0.26,0.18,0.62,0.47,0.68,0.81c-2.45,1.49-5.75,1.77-8.47,1.95c-3.17,0.21-6.33,0.25-9.51,0.14c-3.33-0.12-6.72-0.34-10.05-0.02 c-0.85,0.08-1.82,0.19-2.65,0.53c-0.15,0.01-0.29,0.07-0.38,0.19c-0.05,0.03-0.11,0.04-0.16,0.07c-0.63,0.41-0.9,1.11-0.34,1.71 c0.6,0.64,1.58,0.94,2.38,1.21c1.25,0.42,2.55,0.74,3.85,1.03c1.32,0.3,2.65,0.57,3.98,0.82c0.86,0.16,1.76,0.25,2.61,0.49 c0.93,0.26,1.58,1.47,2.07,2.22c0.77,1.17,1.49,2.37,2.27,3.53c-0.04,0.14-0.01,0.3,0.13,0.43c0.13,0.12,0.27,0.25,0.4,0.37 c0.95,1.33,1.99,2.62,3.29,3.62c1.06,0.81,2.19,1.22,3.5,1.39c3.18,0.42,6.5-0.17,9.62-0.76c2.55-0.49,5.07-1.1,7.59-1.72 c0.01,0.01,0.01,0.02,0.01,0.03c2.38,4.59,4.03,9.51,4.91,14.6c0.01,0.04,0.03,0.06,0.04,0.09c-2.48,2.44-4.01,5-3.46,7.11 c1.69,6.52,16.23,53.9,16.37,54.38v0.14c-10.79,0.04-24.44,0.07-27.99-0.02l-17.86-39.73c-0.95-2.11-3.06-3.49-5.37-3.51 c-12.4-0.12-54.3-0.03-71.74,0.02c-1.23,0-2.37,0.62-3.05,1.65c-0.67,1.03-0.79,2.32-0.3,3.45l22.77,52.91h-5.75v1h135.58h151.53v-1 H325.362z M112.852,178.836c-0.12,0.15-0.28,0.27-0.45,0.36c-0.46,0.25-1.01,0.23-1.51,0.19c-0.53-0.04-1.07-0.11-1.61-0.17 c0.69-0.86,2.01-1.27,3.12-1.42c0.03,0,0.06,0.02,0.09,0.02c0.16-0.01,0.24,0.02,0.36,0.15c0.09,0.1,0.16,0.26,0.16,0.39 C113.022,178.516,112.972,178.676,112.852,178.836z M94.692,190.516c0,0.01,0,0.01,0,0.01c0,0.01,0,0.03-0.01,0.04v0.01 c-0.01,0-0.01,0-0.01,0c-0.2,0.12-0.34,0.32-0.27,0.57c0,0.01,0,0.01,0,0.02c-0.82-0.23-1.64-0.49-2.43-0.81 c-0.32-0.14-0.71-0.33-0.97-0.52c-0.06-0.05-0.1-0.11-0.13-0.15c0.12-0.08,0.27-0.14,0.42-0.21c0.8,0.12,1.59,0.28,2.37,0.49 c0.32,0.09,0.74,0.16,0.95,0.38c0.01,0,0.08,0.07,0.06,0.05c0,0.01,0,0.02,0.01,0.03c0,0.01,0,0.01,0.01,0.02 C94.682,190.446,94.692,190.496,94.692,190.516z" style="fill: rgb(244, 244, 237);"/></g><g id="__id188_sb5zsaz3fr"><path d="M325.316,294.667l-75.333,0.222c0,0,11.111-58.889,9.778-66.889s-4-12.222-4-12.222s7.186-19.956,15.254-26.122 l2.968-2.323c0.52-2.01-1.084-6.247,0.251-7.838c0.372-0.443,0.909-0.709,1.429-0.962c8.183-3.978,16.366-7.956,24.549-11.934 c0.469-0.228,0.958-0.461,1.48-0.468c0.954-0.012,1.775,0.762,2.126,1.649s0.609,3.997,0.609,3.997l3.111,6.667 c0,0,18.444,35.333,18.667,70.667C326.427,284.444,325.316,294.667,325.316,294.667z" style="fill: rgb(30, 64, 175);"/></g><g id="__id189_sb5zsaz3fr"><path d="M281.132,137.887c-0.922,0.265-1.789,0.702-2.565,1.267c0.007,0.036,0.022,0.069,0.018,0.107 c-0.144,1.735-0.108,3.489,0.135,5.214c0.038,0.268-0.061,0.536-0.349,0.615c-0.236,0.065-0.577-0.081-0.615-0.349 c-0.22-1.559-0.29-3.128-0.213-4.698c-0.734,0.742-1.337,1.613-1.733,2.583c-0.103,0.251-0.329,0.428-0.615,0.35 c-0.238-0.065-0.451-0.365-0.349-0.615c1.069-2.616,3.295-4.654,6.019-5.438C281.487,136.744,281.749,137.709,281.132,137.887z M257.43,148.945c-0.663-0.87-1.207-1.947-0.83-3.055c0.374-1.096,1.474-1.628,2.235-2.424c-0.061-0.577-0.093-1.174-0.093-1.763 c0-2.649,0.61-5.484,1.939-5.735c-0.021-1.447-0.078-2.89-0.074-4.334c-0.042-0.065-0.076-0.139-0.088-0.228c0,0,0,0-0.001,0 c-0.011-0.983-0.549-1.647-0.924-2.513c-0.411-0.948-0.561-1.981-0.54-3.01c0.039-1.944,0.551-3.89,1.327-5.664 c1.495-3.418,4.21-6.271,7.736-7.582c0.064-0.024,0.122-0.028,0.177-0.027c0.415-0.499,0.891-0.958,1.448-1.367 c1.642-1.205,3.551-2.058,5.462-2.734c5.161-1.826,10.918-2.344,16.279-1.147c6.697,1.495,12.093,5.87,15.47,11.782 c1.407,2.517,2.086,5.497,2.544,8.318c0.433,2.672,0.684,5.461,0.255,8.151c-0.225,1.408-0.827,2.641-1.39,3.941 c-0.807,1.863-1.606,3.73-2.399,5.6c-1.774,4.186-3.524,8.383-5.226,12.598c0.072,0.079,0.123,0.182,0.121,0.32 c-0.018,1.287-0.069,2.585,0.064,3.868c0.131,1.264,0.499,2.495,0.876,3.704c0.193,0.617-0.773,0.878-0.964,0.266 c-0.398-1.272-0.756-2.553-0.903-3.881c-0.134-1.216-0.099-2.447-0.079-3.669c-0.927-0.272-1.847-0.571-2.761-0.883 c-1.749-0.597-3.482-1.249-5.173-1.998c-1.573-0.697-3.181-1.469-4.509-2.582c-0.473-0.397-0.797-0.915-1.254-1.322 c-0.672-0.599-1.506-1.038-2.298-1.455c-1.086-0.57-2.207-1.085-3.344-1.547c-0.062,0.072-0.119,0.151-0.183,0.221 c-1.292,1.408-3.377,2.149-5.153,1.211c-0.57-0.301-0.064-1.163,0.505-0.863c1.908,1.009,3.816-0.616,4.76-2.171 c0.955-1.573,1.68-3.366,2.202-5.126c0.53-1.784,0.841-3.769,0.382-5.604c-0.415-1.656-1.6-2.964-3.431-2.741 c-0.358,0.044-0.688,0.149-1.003,0.282c-0.1,0.062-0.2,0.127-0.3,0.2c-0.39,0.286-0.776,0.594-1.194,0.829 c-0.571,0.568-1.048,1.251-1.438,1.936c-0.157,0.275-0.444,0.291-0.659,0.172c-3.003,1.534-6.057,2.962-9.16,4.278 c-0.14,0.858-0.487,1.469-0.896,1.469c-0.291,0-0.549-0.315-0.726-0.802c-0.411,0.169-0.82,0.342-1.233,0.507 c-0.099,2.564-0.77,5.09-2.115,5.09c-0.93,0-1.537-1.208-1.857-2.8c-0.755,0.609-1.697,1.22-1.52,2.263 c0.193,1.133,1.253,2.046,1.975,2.869c1.621,1.847,2.324,4.118,2.677,6.512c0.342,2.321,0.389,4.692,1.032,6.96 c0.553,1.948,1.53,4.005,3.329,5.086c2.487,1.494,5.402,0.333,7.866-0.602c2.876-1.092,5.751-2.183,8.627-3.274 c0.603-0.229,0.862,0.738,0.266,0.964c-2.843,1.079-5.674,2.211-8.533,3.254c0.385,1.482,0.892,2.922,1.318,4.392 c0.444,1.528,0.598,3.105,0.653,4.691c0.023,0.645-0.978,0.642-1,0c-0.054-1.535-0.208-3.041-0.645-4.518 c-0.418-1.413-0.895-2.8-1.269-4.225c-0.225,0.08-0.448,0.165-0.673,0.243c-2.73,0.952-5.717,1.28-8.045-0.747 c-3.712-3.232-3.226-8.668-4.072-13.04c-0.25-1.289-0.623-2.568-1.293-3.706C259.086,150.728,258.167,149.913,257.43,148.945z M262.002,141.703c0-1.292-0.143-2.32-0.33-3.097c-0.152,1.903-0.618,3.708-1.794,5.175c0.243,1.751,0.75,2.68,0.994,2.68 C261.2,146.462,262.002,144.794,262.002,141.703z M275.509,135.162c-0.931-0.095-1.81-0.646-2.551-1.174 c-2.731-1.948-4.569-4.93-5.649-8.064c-0.735-2.133-1.154-4.454-1.103-6.742c-1.484,1.471-2.715,3.174-3.465,5.145 c-0.844,2.219-1.103,4.592-1.147,6.95c-0.029,1.573,0.12,3.331,0.144,5.09c0.807,0.858,1.211,2.904,1.258,4.928 c0.339-0.136,0.675-0.278,1.013-0.417c-0.016-0.164-0.025-0.333-0.025-0.508c0-1.268,0.431-2.296,0.963-2.296 c0.492,0,0.893,0.883,0.951,2.019c3.033-1.299,6.019-2.703,8.953-4.213c0.072-0.037,0.142-0.056,0.21-0.06 C275.2,135.596,275.35,135.378,275.509,135.162z M267.686,116.483c-0.119,0.372-0.239,0.743-0.36,1.115 c-0.098,0.784-0.134,1.57-0.116,2.312c0.082,3.321,1.081,6.683,2.851,9.495c0.872,1.384,1.964,2.662,3.287,3.634 c0.757,0.556,1.832,1.37,2.815,1.103c0.119-0.032,0.233-0.075,0.344-0.125c0.48-0.457,1.017-0.834,1.605-1.106 c0.189-0.13,0.382-0.249,0.59-0.338c1.757-0.76,3.685,0.231,4.753,1.665c1.343,1.805,1.18,4.234,0.885,6.339 c-0.369,2.631-1.672,5.022-3.158,7.205c1.212,0.503,2.411,1.049,3.56,1.679c0.767,0.42,1.556,0.876,2.198,1.477 c0.449,0.42,0.773,0.926,1.258,1.319c1.357,1.097,3.029,1.845,4.62,2.531c2.281,0.984,4.645,1.819,7.029,2.527 c0.533-1.317,1.07-2.633,1.612-3.946c1.259-3.054,2.533-6.101,3.824-9.142c0.798-1.88,1.603-3.757,2.416-5.631 c0.527-1.216,0.991-2.34,1.149-3.663c0.325-2.72,0.017-5.539-0.491-8.217c-0.456-2.401-1.063-4.917-2.265-7.067c0,0,0,0,0,0 c-0.463-0.811-0.959-1.603-1.499-2.365c-3.731-5.267-9.432-8.634-15.839-9.378c-5.086-0.591-10.467,0.219-15.148,2.308 c-1.541,0.687-3.142,1.52-4.338,2.735c-0.297,0.302-0.542,0.647-0.765,1.009C268.23,114.799,267.958,115.641,267.686,116.483z M262.074,123.201c0.941-2.019,2.358-4.029,4.141-5.416c0.043-0.133,0.086-0.266,0.129-0.399c0.051-0.36,0.11-0.719,0.188-1.074 c0.179-0.809,0.443-1.557,0.795-2.246c-2.825,1.406-4.979,3.968-6.176,6.875c-0.691,1.679-1.149,3.557-1.096,5.38 c0.023,0.78,0.187,1.483,0.474,2.168C260.749,126.642,261.33,124.798,262.074,123.201z M259.742,141.703 c0,0.145,0.01,0.271,0.013,0.41c0.759-1.523,0.918-3.344,0.932-5.036C260.312,137.509,259.742,139.091,259.742,141.703z M266.07,155.302c-0.38,0.628-0.761,1.146-1.24,1.678c-0.235,0.261-0.482,0.511-0.74,0.749c-0.136,0.125-0.274,0.248-0.416,0.366 c-0.135,0.114-0.269,0.22-0.376,0.301c-0.215,0.163-0.327,0.431-0.179,0.684c0.122,0.212,0.466,0.344,0.683,0.18 c1.253-0.947,2.317-2.108,3.131-3.453c0.14-0.231,0.051-0.549-0.179-0.684C266.517,154.984,266.21,155.071,266.07,155.302z M270.562,158.065c0.825-3.151,0.085-6.537-1.93-9.085c-0.399-0.505-1.102,0.207-0.707,0.707c1.786,2.259,2.4,5.334,1.673,8.112 C269.435,158.422,270.399,158.688,270.562,158.065z M263.348,132.452c-0.267-0.038-0.537,0.066-0.615,0.349 c-0.064,0.235,0.081,0.576,0.35,0.615c2.292,0.329,4.274,1.838,5.199,3.962c0.108,0.248,0.471,0.304,0.684,0.179 c0.256-0.15,0.288-0.436,0.179-0.684C268.132,134.548,265.859,132.813,263.348,132.452z M199.975,152.969 c-0.619-0.175-0.884,0.789-0.265,0.964c2.566,0.726,4.518,2.988,4.923,5.614c0.041,0.267,0.376,0.415,0.615,0.349 c0.285-0.078,0.391-0.347,0.349-0.615C205.141,156.322,202.847,153.781,199.975,152.969z M212.903,164.277 c0.22,0.128,0.567,0.065,0.685-0.179c0.33-0.684,0.825-1.274,1.416-1.741c0.264,1.222,0.376,2.465,0.328,3.716 c-0.01,0.27,0.237,0.5,0.5,0.5c0.279,0,0.49-0.229,0.5-0.5c0.055-1.441-0.092-2.886-0.426-4.288c0.531-0.26,1.105-0.431,1.701-0.477 c0.269-0.021,0.5-0.215,0.5-0.5c0-0.254-0.229-0.521-0.5-0.5c-2.059,0.159-3.978,1.415-4.883,3.285 C212.607,163.836,212.658,164.133,212.903,164.277z M201.094,157.999c-0.614,0-1.111,0.945-1.111,2.111 c0,1.166,0.497,2.111,1.111,2.111s1.111-0.945,1.111-2.111C202.205,158.944,201.708,157.999,201.094,157.999z M274.98,187.382 c-0.57,0.298-0.065,1.161,0.505,0.863c2.16-1.13,4.97-0.549,6.555,1.282c0.422,0.487,1.127-0.222,0.707-0.707 C280.862,186.643,277.518,186.054,274.98,187.382z M297.663,173.827c-5.574,2.249-10.954,4.946-16.081,8.084 c-0.547,0.335-0.046,1.2,0.505,0.863c5.051-3.091,10.349-5.767,15.842-7.983C298.518,174.553,298.261,173.586,297.663,173.827z M327.539,294.166v1H40.428v-1h134.421c0.013-0.05,0.028-0.101,0.063-0.153c2.313-3.42,4.568-6.878,6.761-10.376 c7.78-12.407,14.789-25.294,20.986-38.562c0.273-0.584,1.134-0.075,0.862,0.505c-1.747,3.74-3.557,7.451-5.432,11.129 c-6.587,12.921-13.97,25.433-22.08,37.457h73.524c-0.037-0.087-0.057-0.184-0.033-0.298c0.035-0.166,0.07-0.331,0.105-0.496 c0.735-3.49,1.447-6.984,2.148-10.48c1.251-6.245,2.46-12.498,3.603-18.763c1.211-6.634,2.363-13.282,3.31-19.959 c0.388-2.735,0.741-5.476,0.994-8.227c0.192-2.088,0.388-4.227,0.214-6.323c-0.301-3.61-1.725-7.097-3.396-10.273 c-1.831-3.48-4.08-6.743-6.555-9.794c-2.199-2.712-4.585-5.3-7.211-7.606c-0.932-0.819-1.899-1.609-2.939-2.288 c-0.633-0.414-1.3-0.843-2.036-0.979c-0.021-0.004-0.028-0.006-0.03-0.006c0,0.001-0.009,0.001-0.077-0.005 c-0.072-0.006-0.145-0.01-0.217-0.014c-0.176-0.009-0.351-0.01-0.527-0.009c-0.464,0.002-0.929,0.025-1.393,0.054 c-1.355,0.085-2.707,0.229-4.056,0.388c-3.674,0.435-7.333,1.009-10.974,1.662c-3.758,0.674-7.509,1.429-11.204,2.397 c-4.268,1.118-8.581,2.583-12.436,4.746c-4.812,2.701-8.629,6.981-12.116,11.184c-3.506,4.225-6.638,8.746-9.554,13.393 c-6.032,9.614-11.297,19.713-16.768,29.65c-0.311,0.565-1.174,0.06-0.866-0.501c1.432-2.601,2.864-5.201,4.296-7.802 c2.224-4.04,4.43-8.1,6.705-12.121l-0.112,0.045c-0.1-0.249-10.027-24.949-12.66-30.872c-0.665-1.216-3.258-1.097-6.915,0.351 c-7.345,2.903-15.487,9.658-14.517,13.402c1.684,6.501,16.221,53.865,16.367,54.343l-0.956,0.293 c-0.146-0.478-14.69-47.863-16.379-54.386c-0.546-2.109,0.985-4.666,3.465-7.101c-0.013-0.033-0.032-0.058-0.039-0.098 c-0.883-5.088-2.533-10.011-4.911-14.595c-0.005-0.01-0.004-0.02-0.009-0.03c-2.521,0.616-5.042,1.231-7.593,1.717 c-3.117,0.594-6.439,1.176-9.616,0.76c-1.31-0.172-2.446-0.584-3.501-1.39c-1.303-0.996-2.348-2.284-3.29-3.618 c-0.133-0.125-0.269-0.247-0.401-0.372c-0.141-0.133-0.167-0.287-0.135-0.429c-0.774-1.163-1.498-2.359-2.264-3.528 c-0.492-0.75-1.142-1.962-2.077-2.223c-0.842-0.235-1.747-0.329-2.606-0.492c-1.331-0.252-2.661-0.517-3.983-0.816 c-1.295-0.293-2.592-0.609-3.851-1.035c-0.796-0.269-1.777-0.571-2.371-1.205c-0.561-0.598-0.295-1.303,0.335-1.707 c0.05-0.032,0.109-0.049,0.161-0.078c0.09-0.116,0.228-0.173,0.379-0.183c0.826-0.347,1.796-0.45,2.651-0.532 c3.331-0.323,6.716-0.1,10.052,0.016c3.177,0.11,6.334,0.07,9.507-0.138c2.717-0.178,6.015-0.458,8.472-1.945 c-0.065-0.341-0.426-0.629-0.681-0.817c-1.207-0.89-2.759-1.358-4.172-1.798c-1.817-0.565-3.666-1.02-5.517-1.457 c-0.776-0.183-1.63-0.288-2.369-0.59c-0.437-0.179-0.834-0.492-0.972-0.963c-0.307-1.048,0.686-1.968,1.479-2.46 c1.439-0.893,3.161-1.096,4.819-1.051c1.721,0.046,3.444,0.057,5.165,0.099c3.238,0.079,6.522,0.281,9.694,0.982 c1.869,0.413,3.674,1.072,5.38,1.941c1.22,0.621,2.47,1.298,3.476,2.241c1.493,1.399,2.697,3.131,3.847,4.81 c3.122,4.56,5.833,9.409,8.464,14.264c1.441,2.659,2.857,5.334,4.21,8.038c0.007,0.014,0.005,0.026,0.011,0.04 c0.979,0.156,1.695,0.58,2.086,1.298c2.416,5.432,10.843,26.345,12.431,30.294c3.09-5.422,6.321-10.76,9.94-15.846 c3.168-4.453,6.627-8.742,10.522-12.582c1.992-1.964,4.151-3.757,6.585-5.148c1.707-0.975,3.508-1.77,5.339-2.482l0.614-2.835 l5.308-2.079c0.543-3.937-0.138-7.968-1.583-11.646c-0.003-0.007-0.001-0.012-0.003-0.018c-0.959-0.004-1.917-0.059-2.87-0.182 c-2.409-0.309-5.204-0.871-6.422-3.232c-0.655-1.269-0.972-2.739-1.274-4.124c-0.326-1.496-0.552-3.015-0.682-4.541 c-0.11-1.296-0.103-2.616-0.398-3.889c-0.15-0.647-0.376-1.288-0.769-1.831c-0.399-0.551-0.955-0.889-1.494-1.285 c-1.809-1.331-2.382-3.966-0.964-5.814c0.742-0.965,1.839-1.507,2.857-2.125c1.13-0.687,1.976-1.551,2.433-2.813 c0.852-2.352,0.675-4.994,1.088-7.441c0.757-4.484,2.633-8.951,6.209-11.859c-0.404,0.208-0.705,0.395-0.705,0.395 c-1.671-0.107-2.841-1.964-2.644-3.627c0.197-1.663,1.426-3.046,2.841-3.942c1.843-1.166,4.088-1.682,6.255-1.436 c1.849,0.21,3.606,0.949,5.454,1.167c2.893,0.342,5.768-0.608,8.671-0.856c7.675-0.656,15.5,4.196,18.325,11.362 c0.305,0.771,0.559,1.571,0.998,2.274c0.722,1.156,1.881,1.96,2.801,2.966c2.014,2.203,2.795,5.357,2.496,8.327 c-0.299,2.97-1.589,5.77-3.272,8.236c-0.931,1.365-1.993,2.658-2.674,4.163c-0.701,1.55-0.957,3.278-1.718,4.799 c-1.962,3.919-6.78,6.362-8.563,7.158c-0.551,3.363-0.673,6.831,0.448,10.086l0.422-0.165c0,0,4.036,4.467,3.929,7.789 c0.449-0.014,0.897-0.005,1.335,0.062c0.735,0.114,1.429,0.508,2.054,0.894c2.407,1.484,4.515,3.514,6.477,5.529 c2.674,2.746,5.124,5.721,7.314,8.866c3.903,5.603,7.38,12.13,7.158,19.138c-0.17,5.356-1.018,10.712-1.829,16 c-1.054,6.874-2.277,13.723-3.557,20.558c-1.116,5.956-2.283,11.902-3.49,17.84c-0.515,2.536-1.034,5.071-1.572,7.603 c-0.003,0.013-0.011,0.02-0.014,0.032h24.72c0.184-0.659,0.433-1.312,0.642-1.96c0.52-1.611,1.035-3.224,1.546-4.838 c1.644-5.19,3.248-10.392,4.814-15.605c2.033-6.767,4.002-13.554,5.878-20.366c1.951-7.084,3.808-14.195,5.464-21.354 c1.418-6.13,2.736-12.309,3.569-18.55c0.084-0.63,1.085-0.636,1,0.002c-0.09,0.673-0.184,1.345-0.285,2.016 c-0.965,6.434-2.362,12.803-3.867,19.129c-1.715,7.208-3.615,14.372-5.606,21.508c-1.866,6.691-3.818,13.358-5.83,20.007 c-1.501,4.96-3.036,9.91-4.607,14.848c-0.549,1.723-1.102,3.445-1.664,5.163H327.539z M109.284,179.217 c0.537,0.063,1.074,0.132,1.612,0.173c0.499,0.038,1.049,0.053,1.503-0.19c0.173-0.093,0.336-0.211,0.453-0.368 c0.115-0.155,0.172-0.32,0.164-0.476c-0.007-0.126-0.073-0.288-0.166-0.393c-0.117-0.131-0.194-0.16-0.353-0.152 c-0.034,0.002-0.064-0.012-0.097-0.018C111.297,177.949,109.976,178.357,109.284,179.217z M94.686,190.567 c0.004-0.014,0.008-0.029,0.011-0.043c-0.001-0.004-0.001-0.002-0.002-0.011c-0.001-0.017-0.01-0.067-0.008-0.063 c-0.002-0.009-0.005-0.018-0.008-0.027c-0.004-0.003-0.019-0.035-0.009-0.024c0.018,0.019-0.045-0.048-0.054-0.057 c-0.218-0.214-0.631-0.286-0.951-0.372c-0.783-0.21-1.578-0.37-2.379-0.494c-0.149,0.066-0.291,0.135-0.415,0.212 c0.032,0.042,0.071,0.098,0.134,0.147c0.251,0.195,0.643,0.381,0.97,0.518c0.783,0.327,1.601,0.581,2.429,0.812 c-0.001-0.005-0.005-0.008-0.007-0.013c-0.07-0.253,0.072-0.466,0.284-0.578C94.684,190.571,94.685,190.569,94.686,190.567z M94.747,190.536c-0.022,0.003-0.04,0.012-0.055,0.028c-0.027,0.024-0.023,0.018,0.013-0.016c-0.006,0.007-0.012,0.015-0.018,0.022 c0,0,0,0,0,0C94.708,190.56,94.725,190.545,94.747,190.536z M153.41,209.073c-1.575-2.891-3.022-5.856-4.605-8.745 c-2.561-4.674-5.197-9.353-8.267-13.716c-1.052-1.495-2.165-3.077-3.584-4.252c-1.276-1.056-2.935-1.848-4.462-2.479 c-1.611-0.666-3.299-1.111-5.017-1.393c-3.195-0.525-6.41-0.649-9.641-0.707c-1.317-0.024-2.671-0.12-4-0.087 c0.039,0.079,0.087,0.154,0.113,0.238c0.201,0.649-0.072,1.351-0.567,1.791c-1.12,0.994-2.727,0.671-4.101,0.494 c0.195,0.1,0.429,0.152,0.628,0.199c0.425,0.099,0.85,0.197,1.275,0.297c1.796,0.422,3.591,0.856,5.36,1.38 c1.483,0.44,3.003,0.922,4.361,1.676c0.648,0.36,1.334,0.832,1.656,1.504c0.268-0.215,0.535-0.433,0.771-0.69 c0.436-0.475,1.142,0.234,0.707,0.707c-0.52,0.566-1.132,1.042-1.797,1.427c-3.057,1.771-6.898,1.99-10.344,2.154 c-3.013,0.143-5.993,0.138-9.007,0.032c-3.058-0.108-6.192-0.31-9.247,0.022c0.321,0.078,0.639,0.163,0.944,0.277 c0.492,0.184,0.983,0.509,1.083,1.064c0.082,0.458-0.088,0.872-0.455,1.114c1.388,0.345,2.8,0.616,4.176,0.887 c1.052,0.208,2.108,0.401,3.162,0.599c0.23,0.043,0.439,0.096,0.639,0.158c0.044-0.017,0.086-0.037,0.139-0.042 c1.909-0.177,3.728,0.446,5.577,0.807c1.99,0.388,4.031,0.309,5.993-0.194c0.625-0.161,0.889,0.804,0.266,0.964 c-1.928,0.495-3.921,0.605-5.89,0.305c-1.55-0.236-3.058-0.749-4.613-0.877c0.486,0.537,0.907,1.134,1.303,1.748 c0.076,0.004,0.154,0.022,0.235,0.075c1.546,1.001,3.24,2.074,5.02,2.584c1.107,0.317,2.35,0.088,3.458-0.119 c0.784-0.146,1.567-0.322,2.335-0.539c0.622-0.176,0.884,0.789,0.266,0.964c-0.835,0.236-1.687,0.426-2.541,0.577 c-1.19,0.211-2.49,0.425-3.681,0.11c-1.371-0.363-2.698-1.061-3.947-1.82c0.486,0.777,0.981,1.549,1.507,2.3 c0.455,0.43,0.917,0.86,1.416,1.229c0.585,0.432,1.432,0.463,2.137,0.476c1.959,0.035,3.92,0.012,5.879,0.018 c0.645,0.002,0.644,1.002,0,1c-1.968-0.006-3.938,0.02-5.905-0.018c-0.466-0.009-0.965-0.039-1.442-0.14 c0.723,0.739,1.547,1.406,2.497,1.747c1.194,0.428,2.503,0.485,3.759,0.468c6.186-0.086,12.154-2.114,18.149-3.394 c0.629-0.134,0.895,0.83,0.262,0.962c-0.548,0.116-1.093,0.245-1.637,0.376c-0.297,0.072-0.593,0.144-0.89,0.217 c2.287,4.464,3.913,9.24,4.813,14.174c3.077-2.764,7.25-5.285,10.81-6.692C150.426,209.515,152.08,209.122,153.41,209.073z M195.475,174.621c0.088,0.017,0.176,0.054,0.254,0.141c0.273,0.301,0.697,0.287,1.074,0.256c0.527-0.043,1.055-0.156,1.567-0.288 c1.075-0.278,2.091-0.714,3.04-1.288c0.15-0.091,0.293-0.089,0.416-0.038c0.067-0.182,0.133-0.395,0.16-0.595 c-2.118,0.692-4.333,1.049-6.561,1.061C195.444,174.12,195.46,174.37,195.475,174.621z M195.916,178.832 c1.484-0.336,2.841-1.076,3.917-2.157c0.588-0.591,1.082-1.263,1.467-2.003c0.006-0.011,0.009-0.023,0.015-0.034 c-0.946,0.505-1.956,0.896-3.001,1.135c-0.822,0.188-1.944,0.444-2.769,0.061c0.019,0.296,0.041,0.587,0.071,0.872 C195.69,177.418,195.793,178.127,195.916,178.832z M231.296,190.383c-0.005-0.011-0.013-0.017-0.017-0.029 c-1.148-3.282-1.069-6.785-0.547-10.19c-2.221-0.381-13.95-2.75-13.638-10.193c-1.164,1.042-2.623,1.653-4.38,1.418 c-0.63-0.084-0.636-1.085,0-1c4.831,0.645,6.849-5.518,6.8-9.294c-0.022-1.65-0.589-3.899-2.596-3.995 c-1.982-0.095-4.091,1.442-4.653,3.322c-0.185,0.616-1.149,0.352-0.964-0.266c0.247-0.825,0.708-1.552,1.297-2.163 c-1.214-0.217-4.058-1.009-5.209-3.772c-1.481-3.555-0.74-4.889-2.37-8.148c-1.629-3.259,0.889-6.518,0.593-7.407 c-0.077-0.231-0.304-0.294-0.596-0.264c0.138,0.217,0.141,0.535-0.132,0.72c-4.511,3.093-6.373,8.734-6.885,13.953 c-0.221,2.246-0.195,4.712-1.414,6.702c-0.603,0.985-1.481,1.659-2.459,2.241c-0.98,0.583-2.139,1.131-2.681,2.196 c-0.496,0.976-0.41,2.232,0.19,3.144c0.662,1.006,1.908,1.42,2.61,2.422c0.639,0.912,0.922,1.982,1.073,3.093 c2.361-0.003,4.692-0.396,6.92-1.186c0.217-0.077,0.446,0.057,0.565,0.23c0.322,0.469,0.174,1.048,0.035,1.555 c-0.124,0.454-0.292,0.895-0.487,1.323c-0.395,0.864-0.944,1.66-1.589,2.357c-1.232,1.33-2.87,2.29-4.645,2.673 c0.093,0.458,0.179,0.917,0.291,1.371c0.321,1.304,0.625,2.841,1.566,3.858c0.848,0.916,2.107,1.302,3.29,1.559 c1.282,0.279,2.59,0.429,3.901,0.47c5.244,0.163,10.458-1.483,14.654-4.63c0.516-0.387,1.014,0.481,0.505,0.863 c-3.876,2.908-8.645,4.558-13.477,4.75c1.372,3.585,1.987,7.454,1.578,11.275L231.296,190.383z" style="fill: inherit;"/></g><g id="__id190_sb5zsaz3fr"><path d="M163.761,283.566c0-2.334-1.897-4.223-4.231-4.212c-9.682,0.045-32.984,0.138-37.796,0.021l-17.864-39.731 c-0.95-2.111-3.058-3.489-5.37-3.512c-12.398-0.116-54.3-0.024-71.739,0.021c-1.231,0.003-2.369,0.619-3.045,1.648 c-0.676,1.03-0.79,2.322-0.302,3.454l22.907,53.243h82.213L128.31,294h35.451V283.566z M46.979,293.499l-22.646-52.638 c-0.354-0.823-0.272-1.762,0.219-2.511c0.498-0.759,1.304-1.195,2.212-1.197c17.437-0.046,59.333-0.137,71.727-0.021 c1.924,0.019,3.678,1.165,4.468,2.922l24.03,53.445H46.979z" style="fill: rgb(30, 64, 175);"/></g><g id="__id191_sb5zsaz3fr"><path d="M78.885,263.281c1.567,7.09-0.919,13.668-5.553,14.692c-4.634,1.024-9.661-3.893-11.228-10.983 c-1.567-7.09,0.919-13.668,5.553-14.692C72.292,251.273,77.318,256.191,78.885,263.281z M67.835,31.111 c-10.718,0-19.407,8.689-19.407,19.407s8.689,19.407,19.407,19.407s19.407-8.689,19.407-19.407S78.553,31.111,67.835,31.111z" style="fill: rgb(253, 189, 92);"/></g><g id="__id192_sb5zsaz3fr"><path d="M73.769,48.852c-1.343-0.456-4.138-1.405-4.153-7.096c-0.003-0.982-0.833-1.812-1.814-1.812 c-0.977,0-1.756,0.768-1.813,1.786c-0.111,1.953-0.723,3.894-1.217,5.179c-0.41,1.066-1.41,1.415-2.378,1.753 c-1.03,0.36-2.197,0.768-2.132,2.148c0.059,1.244,1.121,1.705,2.058,2.112c1.049,0.456,2.135,0.927,2.471,2.395l0.17,0.734 c0.34,1.455,0.692,2.958,0.75,4.443c0.041,1.018,0.806,1.798,1.782,1.816c0.01,0,0.019,0,0.029,0c0.947,0,1.758-0.784,1.814-1.762 c0.38-6.609,2.344-7.001,3.778-7.288c0.343-0.069,0.667-0.133,0.952-0.271c0.848-0.408,1.38-1.29,1.325-2.193 C75.338,49.904,74.731,49.178,73.769,48.852z M73.634,52.086c-0.171,0.083-0.423,0.133-0.714,0.191 c-2.103,0.42-4.188,1.4-4.581,8.211c-0.025,0.44-0.406,0.82-0.817,0.82c-0.003,0-0.007,0-0.011,0 c-0.503-0.009-0.784-0.437-0.8-0.855c-0.062-1.58-0.425-3.131-0.775-4.631l-0.169-0.729c-0.449-1.961-1.951-2.613-3.048-3.089 c-0.938-0.407-1.429-0.647-1.457-1.242c-0.028-0.581,0.379-0.778,1.462-1.157c1.072-0.375,2.406-0.84,2.982-2.338 c0.52-1.352,1.163-3.399,1.281-5.481c0.023-0.418,0.311-0.842,0.815-0.842c0.425,0,0.813,0.389,0.814,0.815 c0.016,5.678,2.59,7.279,4.832,8.041c0.581,0.197,0.917,0.572,0.946,1.057C74.425,51.358,74.12,51.853,73.634,52.086z M212.88,66.545h-13.916h-13.916c-5.303,0-8.617-5.741-5.966-10.333l6.958-12.051l6.958-12.051c2.652-4.593,9.28-4.593,11.932,0 l6.958,12.051l6.958,12.051C221.498,60.805,218.183,66.545,212.88,66.545z M73.256,262.74c-0.722-0.192-2.223-0.594-3.197-4.964 c-0.184-0.826-0.851-1.387-1.483-1.247c-0.635,0.141-0.98,0.871-0.822,1.738c0.278,1.526,0.301,3.098,0.271,4.147 c-0.023,0.823-0.396,1.143-0.828,1.513c-0.47,0.402-1.056,0.904-0.784,1.978c0.245,0.965,0.928,1.229,1.477,1.44 c0.598,0.231,1.162,0.449,1.573,1.521l0.208,0.537c0.422,1.09,0.858,2.217,1.143,3.366c0.192,0.769,0.711,1.274,1.277,1.274 c0.061,0,0.122-0.006,0.184-0.019c0.63-0.123,1.003-0.881,0.848-1.726c-0.925-5.091-0.008-5.609,0.54-5.919 c0.177-0.101,0.359-0.203,0.511-0.378c0.408-0.466,0.536-1.262,0.317-1.98C74.289,263.364,73.839,262.896,73.256,262.74z M73.419,265.347c-0.04,0.046-0.142,0.104-0.25,0.164c-1.098,0.621-2.003,1.622-1.031,6.97c0.057,0.312-0.039,0.539-0.042,0.564 c-0.057-0.014-0.229-0.181-0.312-0.516c-0.3-1.21-0.748-2.367-1.181-3.485l-0.206-0.534c-0.569-1.487-1.48-1.84-2.146-2.097 c-0.533-0.206-0.754-0.308-0.867-0.754c-0.115-0.451,0.011-0.584,0.465-0.973c0.481-0.412,1.141-0.977,1.177-2.242 c0.031-1.098,0.007-2.744-0.287-4.356c-0.061-0.332,0.023-0.553,0.026-0.58c0.063,0.013,0.25,0.177,0.319,0.485 c0.974,4.373,2.525,5.343,3.915,5.714c0.331,0.088,0.477,0.418,0.535,0.607C73.648,264.696,73.6,265.14,73.419,265.347z" style="fill: rgb(253, 189, 92);"/></g><g id="__id193_sb5zsaz3fr"><path d="M196.739,56.738c0.63,0.889,1.291,2.049,2.578,1.712c0.588-0.154,0.912-0.583,1.233-1.064 c0.363-0.544,0.724-1.09,1.082-1.637c0.799-1.219,1.591-2.444,2.344-3.692c0.422-0.701,1.114-1.589,1.239-2.423 c0.003-0.023-0.004-0.042-0.003-0.064c0.005-0.024,0.018-0.042,0.02-0.068c0.158-1.777-0.61-4.006-2.756-3.907 c-1.701,0.078-2.921,1.794-3.724,3.291c-0.948-1.641-2.194-3.466-4.253-3.3c-1.401,0.113-2.311,1.288-2.476,2.618 c-0.116,0.933,0.123,1.607,0.579,2.386C193.845,52.719,195.315,54.729,196.739,56.738z M193.654,46.972 c1.16-1.028,2.618,0.041,3.325,1.039c0.495,0.699,0.944,1.435,1.367,2.18c0.175,0.308,0.699,0.344,0.863,0 c0.604-1.259,1.573-3.198,3.052-3.56c0.487-0.119,1.014,0.044,1.375,0.385c0.638,0.602,0.669,1.571,0.604,2.391 c-0.096,0.539-0.506,1.092-0.773,1.55c-0.515,0.885-1.061,1.751-1.612,2.614c-0.583,0.911-1.175,1.816-1.773,2.718 c-0.235,0.354-0.488,0.948-0.879,1.145c-0.604,0.304-0.973-0.318-1.266-0.731c-1.224-1.72-2.442-3.448-3.594-5.217 c-0.422-0.648-0.899-1.311-1.214-2.021C192.81,48.747,193.007,47.546,193.654,46.972z M33.428,78.832 c-1.746,0-3.167,1.421-3.167,3.167s1.421,3.167,3.167,3.167s3.167-1.421,3.167-3.167S35.174,78.832,33.428,78.832z M33.428,84.166 c-1.195,0-2.167-0.972-2.167-2.167s0.972-2.167,2.167-2.167s2.167,0.972,2.167,2.167S34.623,84.166,33.428,84.166z M104.835,81.999 c0,1.064-0.862,1.926-1.926,1.926H42.761c-1.064,0-1.926-0.862-1.926-1.926c0-1.064,0.862-1.926,1.926-1.926h60.148 C103.973,80.073,104.835,80.935,104.835,81.999z M33.428,95.227c-1.746,0-3.167,1.421-3.167,3.167s1.421,3.167,3.167,3.167 s3.167-1.421,3.167-3.167S35.174,95.227,33.428,95.227z M33.428,100.561c-1.195,0-2.167-0.972-2.167-2.167s0.972-2.167,2.167-2.167 s2.167,0.972,2.167,2.167S34.623,100.561,33.428,100.561z M104.835,98.394c0,1.064-0.862,1.926-1.926,1.926H42.761 c-1.064,0-1.926-0.862-1.926-1.926c0-1.064,0.862-1.926,1.926-1.926h60.148C103.973,96.468,104.835,97.33,104.835,98.394z M33.428,111.622c-1.746,0-3.167,1.421-3.167,3.167s1.421,3.167,3.167,3.167s3.167-1.421,3.167-3.167S35.174,111.622,33.428,111.622 z M33.428,116.956c-1.195,0-2.167-0.972-2.167-2.167s0.972-2.167,2.167-2.167s2.167,0.972,2.167,2.167 S34.623,116.956,33.428,116.956z M104.835,114.789c0,1.064-0.862,1.926-1.926,1.926H42.761c-1.064,0-1.926-0.862-1.926-1.926 c0-1.064,0.862-1.926,1.926-1.926h60.148C103.973,112.863,104.835,113.725,104.835,114.789z M33.428,128.018 c-1.746,0-3.167,1.421-3.167,3.167s1.421,3.167,3.167,3.167s3.167-1.421,3.167-3.167S35.174,128.018,33.428,128.018z M33.428,133.352c-1.195,0-2.167-0.972-2.167-2.167s0.972-2.167,2.167-2.167s2.167,0.972,2.167,2.167S34.623,133.352,33.428,133.352 z M104.835,131.184c0,1.064-0.862,1.926-1.926,1.926H42.761c-1.064,0-1.926-0.862-1.926-1.926c0-1.064,0.862-1.926,1.926-1.926 h60.148C103.973,129.258,104.835,130.12,104.835,131.184z M160.983,76.166c-1.746,0-3.167,1.421-3.167,3.167 s1.421,3.167,3.167,3.167s3.167-1.421,3.167-3.167S162.729,76.166,160.983,76.166z M160.983,81.5c-1.195,0-2.167-0.972-2.167-2.167 s0.972-2.167,2.167-2.167s2.167,0.972,2.167,2.167S162.178,81.5,160.983,81.5z M168.391,79.333c0-1.064,0.862-1.926,1.926-1.926 h60.148c1.064,0,1.926,0.862,1.926,1.926c0,1.063-0.863,1.926-1.926,1.926h-60.148C169.253,81.259,168.391,80.397,168.391,79.333z M160.983,92.561c-1.746,0-3.167,1.421-3.167,3.167s1.421,3.167,3.167,3.167s3.167-1.421,3.167-3.167S162.729,92.561,160.983,92.561 z M160.983,97.895c-1.195,0-2.167-0.972-2.167-2.167s0.972-2.167,2.167-2.167s2.167,0.972,2.167,2.167 S162.178,97.895,160.983,97.895z M232.391,95.728c0,1.063-0.863,1.926-1.926,1.926h-60.148c-1.064,0-1.926-0.862-1.926-1.926 c0-1.064,0.862-1.926,1.926-1.926h60.148C231.529,93.802,232.391,94.664,232.391,95.728z M160.983,108.956 c-1.746,0-3.167,1.421-3.167,3.167s1.421,3.167,3.167,3.167s3.167-1.421,3.167-3.167S162.729,108.956,160.983,108.956z M160.983,114.29c-1.195,0-2.167-0.972-2.167-2.167s0.972-2.167,2.167-2.167s2.167,0.972,2.167,2.167S162.178,114.29,160.983,114.29 z M232.391,112.123c0,1.063-0.863,1.926-1.926,1.926h-60.148c-1.064,0-1.926-0.862-1.926-1.926c0-1.064,0.862-1.926,1.926-1.926 h60.148C231.529,110.197,232.391,111.059,232.391,112.123z M160.983,125.351c-1.746,0-3.167,1.421-3.167,3.167 s1.421,3.167,3.167,3.167s3.167-1.421,3.167-3.167S162.729,125.351,160.983,125.351z M160.983,130.685 c-1.195,0-2.167-0.972-2.167-2.167s0.972-2.167,2.167-2.167s2.167,0.972,2.167,2.167S162.178,130.685,160.983,130.685z M232.391,128.518c0,1.064-0.863,1.926-1.926,1.926h-60.148c-1.064,0-1.926-0.862-1.926-1.926c0-1.064,0.862-1.926,1.926-1.926 h60.148C231.529,126.592,232.391,127.454,232.391,128.518z M129.816,14.887c0.031,1.687,0,3.378,0,5.065c0,3.572,0,7.143,0,10.715 c0,4.968,0,9.936,0,14.904c0,5.858,0,11.715,0,17.573c0,6.326,0,12.651,0,18.977c0,6.225,0,12.449,0,18.673 c0,5.703,0,11.405,0,17.108c0,4.674,0,9.348,0,14.022c0,3.153,0,6.305,0,9.458c0,1.169,0,2.338,0,3.507c0,0.645-1,0.643-1,0 c0-0.073,0.001-0.147,0-0.221c-0.031-1.687,0-3.378,0-5.065c0-3.572,0-7.143,0-10.715c0-4.968,0-9.936,0-14.904 c0-5.858,0-11.715,0-17.573c0-6.326,0-12.651,0-18.977c0-6.225,0-12.449,0-18.673c0-5.703,0-11.405,0-17.108 c0-4.674,0-9.348,0-14.022c0-3.153,0-6.305,0-9.458c0-1.169,0-2.338,0-3.507c0-0.645,1-0.643,1,0 C129.816,14.739,129.815,14.813,129.816,14.887z" style="fill: inherit;"/></g></svg>