<svg xmlns="http://www.w3.org/2000/svg" xmlns:xlink="http://www.w3.org/1999/xlink" preserveAspectRatio="xMidYMid meet" version="1.0" viewBox="0.0 0.0 440.3 410.2" zoomAndPan="magnify" style="fill: rgb(122, 150, 241);" original_string_length="24651"><g id="__id14_su4nqsmais"><path d="M424.3,338.7c-0.8-3.2-1.8-7.6-3-12.9c-9.4-41.3-28.8-127.3-42.6-137.5c-8.2-6.1-23.5-10.9-45.3-14.3 c-8.7-1.4-17.3-2.3-24.9-3l0.2-19.5c0-0.3-0.2-0.5-0.4-0.7c2.6-5,19.5-38.6,21.9-45.6c8.9-25.7-9.8-43.8-46.4-49.6 c-0.1-0.1-0.2-0.1-0.2-0.2c-1.8-4.3-4.5-8.2-9.6-9c-4.8-0.8-10.8,0.4-13.6,4.6c-4.1-2.8-10.4-3.5-14.8-0.6 c-3.3,2.2-5.4,4.8-4.9,10.8c-3.4,0.7-7.5,5.2-8.4,8.7c-1.1,4.4,1.6,13.6,7.6,14.5c-1.7,5.9-4.5,16.7-5.2,20.3c0,0.2-0.1,0.3-0.3,0.4 c-0.3,0.1-0.8,0.3-1.4,0.6c-7.3,3.1-11.9,5.4-12.2,7.5c-0.3,2.3,2.1,5.9,4.7,9.4c0.2,0.3,0.4,0.6,0.6,0.8c0.1,0.2,0.3,1,0.3,1.2 l-0.1,0.2c-1.1,4-4.5,16.3-1.9,21.8c2.4,5.1,12.3,6.5,21,7.8l1.4,0.2v15.2l-0.3,0c-0.1,0-0.2,0-0.2,0c-1.9,0.1-47,3.4-57.9,15.1 c-1.1,1.2-2.1,2.5-3.2,3.9V0H5.6v198.7h87.9c0.3,0.6,0.5,1.1,0.9,1.7c-0.2,0.4-0.5,0.9-0.6,1.7c-0.2,1.8,0.7,3.9,2.7,6.4 c5.3,6.6,7.4,8.4,15.4,15.1l1.1,0.9l4.7,25.1l-13.7,6.6c-0.3,0.1-0.5,0.5-0.4,0.8c0,0.2,2,11.2,4.8,24.9c-0.9-0.1-1.7-0.2-2.6-0.5 c-1.7-0.5-3.4-1.5-4.8-3.3c-1-1.2-2.1-2.2-3.1-3c-6-4.5-11.8-1.9-11.8-1.9c-4.8,6.1,0.2,20.1,2.1,24.7c0,0,0,0,0,0 c-3.4,1.5-6.8,7.3-6,10.8c0,0,0,0,0,0C29.1,323.4,0,394,0,394h162.2c-0.5-11.3-2-21.2-4.3-29.8c0,0.1,0,0.1,0.1,0.2 c12.9-1.5,23.9-7.8,32.7-18.9v47.1c0,0.4,0.3,0.8,0.8,0.8h168c2.4,0,5.8,0.3,9.6,0.7c5.5,0.6,11.9,1.2,18.5,1.2 c11.9,0,24.3-2.2,32.1-11C427.6,375.1,429.2,359.7,424.3,338.7z M108.7,281.9c0.1,0,0.3,0,0.4,0c0,0,0,0,0,0 C109,281.9,108.9,281.9,108.7,281.9z M155,201.8c-0.1,0.1-0.2,0.2-0.3,0.4l0,0C154.8,202,154.9,201.9,155,201.8 C155,201.7,155,201.7,155,201.8C155,201.7,155,201.7,155,201.8z M171.5,215.4l-11-0.2l-5.3-13.8c0.5-0.8,0.8-1.8,0.8-2.7h23.1 C176.1,204.4,173.5,210.4,171.5,215.4z M306.9,237.4C307,237.3,307,237.3,306.9,237.4C307,237.3,307,237.3,306.9,237.4 C307,237.4,306.9,237.4,306.9,237.4z" style="fill: rgb(255, 255, 255);"/></g><g id="__id15_su4nqsmais"><path d="M276.1,238.3c0.5,0.4,1.1,0.7,1.7,1.1C277.2,239,276.6,238.6,276.1,238.3z M283.2,242.5c-1-0.6-2.1-1.1-3.1-1.7 C281.1,241.4,282.2,242,283.2,242.5z M284.7,243.3c1,0.5,2,1.1,3,1.6C286.7,244.4,285.7,243.9,284.7,243.3z M309.5,171.8 c-8.3,10.5-22.2,24-38.3,22.5c-16.6-1.5-25.2-14.4-29.3-23.5c-1.8,0.2-4.2,0.4-6.8,0.7c-1.1,10.3-2.4,27.3-3.7,44.9l48.5,0.9 c4.2,0.1,8,2.4,9.6,6l4.4,9.8c4.6,1.7,9.3,3.5,12.8,5c4.8-23.2,10.8-51.4,13.8-65.2C316.8,172.5,313.1,172.2,309.5,171.8z M267.1,257.7c0.2,0.4,0.4,0.7,0.7,1.1C267.5,258.4,267.3,258.1,267.1,257.7z M266.6,256.1c-0.1-0.4-0.1-0.8-0.1-1.2 C266.5,255.3,266.5,255.7,266.6,256.1z M266.6,256.1c0.1,0.6,0.3,1.1,0.5,1.6C266.8,257.2,266.7,256.6,266.6,256.1z M271.7,285.4 c-1.2-0.4-2.2-0.8-3-1.3C269.6,284.6,270.6,285,271.7,285.4z M271.7,285.4c1.7,0.5,3.4,1,5.2,1.5 C275.1,286.4,273.4,285.9,271.7,285.4z M299.3,310.2C299.3,310.2,299.3,310.2,299.3,310.2C299.3,310.2,299.3,310.2,299.3,310.2 C299.3,310.2,299.3,310.2,299.3,310.2z M276.3,247.4c-1.3,0.1-2.6,0.3-3.5,0.5C273.7,247.7,274.9,247.6,276.3,247.4z M287.9,246.9 c1.8,0,3.1,0,3.3,0C291,246.8,289.7,246.8,287.9,246.9z M284.9,246.9c-0.8,0-1.7,0.1-2.6,0.1C283.2,247,284.1,247,284.9,246.9z M227.1,312.7v79.8h73.2c-0.3-14.3-0.9-49.5-1-78.5L227.1,312.7z M5.6,0h179.6v190c-1.8,2.6-3.6,5.6-5.2,8.7h-24 c0-1.3-0.6-2.6-1.7-3.5l-55.1-43.8l-9.2-7.2h79.7V39.8H21.2v104.4h56.6c1.6,2.8,3.8,5.3,6.3,7.3l7.5,5.9c0.2-1,0.6-1.9,1.4-2.5 c6.7-5.3,21,10.2,25.5,17.3c4.5,7.1,7.4,11.2,11.7,14.9c2.8,2.5,9.7,8.1,14,11.6H5.6V0z M21.3,162.7c0,0.1,0,0.1,0.1,0.1h61.8 c0.1,0,0.1,0,0.1-0.1v-5.9c0-0.1,0-0.1-0.1-0.1H21.4c-0.1,0-0.1,0-0.1,0.1L21.3,162.7L21.3,162.7z M21.3,174.1c0,0.1,0,0.1,0.1,0.1 h49.4c0.1,0,0.1,0,0.1-0.1v-5.8c0-0.1,0-0.1-0.1-0.1H21.4c-0.1,0-0.1,0-0.1,0.1L21.3,174.1L21.3,174.1z M28.1,110.7 c0.1-0.1,0.2-0.2,0.4-0.3c0.2-0.1,0.4-0.1,0.6-0.1c0.4,0,0.8,0.2,1,0.4c0.2,0.3,0.4,0.7,0.4,1.3l2.2,0c0-0.5-0.1-0.9-0.2-1.3 c-0.1-0.4-0.3-0.7-0.6-1c-0.2-0.3-0.5-0.5-0.9-0.7c-0.4-0.2-0.7-0.3-1.2-0.4l0-1.5l-1.2,0l0,1.5c-0.5,0-0.9,0.1-1.2,0.3 s-0.7,0.3-0.9,0.6c-0.3,0.2-0.5,0.5-0.6,0.8s-0.2,0.7-0.2,1.1c0,0.5,0.1,0.9,0.2,1.2c0.2,0.3,0.4,0.6,0.7,0.9c0.3,0.3,0.6,0.5,1,0.7 c0.4,0.2,0.8,0.4,1.3,0.6c0.3,0.1,0.5,0.2,0.7,0.3c0.2,0.1,0.4,0.2,0.5,0.3c0.1,0.1,0.2,0.3,0.3,0.4c0.1,0.2,0.1,0.3,0.1,0.5 c0,0.2,0,0.3-0.1,0.5c-0.1,0.1-0.2,0.3-0.3,0.4c-0.1,0.1-0.3,0.2-0.5,0.2s-0.4,0.1-0.6,0.1c-0.2,0-0.4,0-0.6-0.1 c-0.2-0.1-0.4-0.2-0.5-0.3c-0.2-0.1-0.3-0.3-0.4-0.5c-0.1-0.2-0.1-0.5-0.1-0.8l-2.2,0c0,0.6,0.1,1,0.3,1.4s0.4,0.7,0.7,1 c0.3,0.3,0.6,0.5,1,0.6c0.4,0.1,0.8,0.2,1.2,0.3l0,1.4l1.2,0l0-1.4c0.5,0,0.9-0.1,1.2-0.3c0.3-0.1,0.6-0.3,0.9-0.5c0,0,0,0,0.1-0.1 c0.3-0.2,0.5-0.5,0.6-0.8c0.1-0.3,0.2-0.7,0.2-1.1c0-0.1,0-0.1,0-0.2c0-0.4-0.1-0.7-0.2-1c-0.2-0.3-0.4-0.6-0.7-0.9 c-0.3-0.3-0.6-0.5-1-0.7c-0.4-0.2-0.8-0.4-1.3-0.6c-0.3-0.1-0.6-0.2-0.8-0.3c-0.2-0.1-0.4-0.2-0.5-0.3c-0.1-0.1-0.2-0.3-0.3-0.4 c0-0.1-0.1-0.3-0.1-0.5c0-0.2,0-0.3,0.1-0.5C27.9,110.9,28,110.8,28.1,110.7z M37.3,110.7c0.1-0.1,0.2-0.2,0.4-0.3s0.4-0.1,0.6-0.1 c0.4,0,0.8,0.2,1,0.4c0.2,0.3,0.4,0.7,0.4,1.3l2.2,0c0-0.5-0.1-0.9-0.2-1.3c-0.1-0.4-0.3-0.7-0.6-1c-0.2-0.3-0.5-0.5-0.9-0.7 c-0.3-0.2-0.7-0.3-1.2-0.4l0-1.5l-1.2,0l0,1.5c-0.5,0-0.9,0.1-1.2,0.3c-0.4,0.1-0.7,0.3-0.9,0.6c-0.3,0.2-0.5,0.5-0.6,0.8 s-0.2,0.7-0.2,1.1c0,0.5,0.1,0.9,0.2,1.2c0.2,0.3,0.4,0.6,0.7,0.9c0.3,0.3,0.6,0.5,1,0.7c0.4,0.2,0.8,0.4,1.3,0.6 c0.3,0.1,0.5,0.2,0.7,0.3c0.2,0.1,0.4,0.2,0.5,0.3c0.1,0.1,0.2,0.3,0.3,0.4c0.1,0.2,0.1,0.3,0.1,0.5c0,0.2,0,0.3-0.1,0.5 c-0.1,0.1-0.2,0.3-0.3,0.4c-0.1,0.1-0.3,0.2-0.5,0.2s-0.4,0.1-0.6,0.1c-0.2,0-0.4,0-0.6-0.1c-0.2-0.1-0.4-0.2-0.5-0.3 c-0.2-0.1-0.3-0.3-0.4-0.5c-0.1-0.2-0.1-0.5-0.1-0.8l-2.2,0c0,0.6,0.1,1,0.3,1.4s0.4,0.7,0.7,1c0.3,0.3,0.6,0.5,1,0.6 c0.4,0.1,0.8,0.2,1.2,0.3l0,1.4l1.2,0l0-1.4c0.5,0,0.9-0.1,1.2-0.3c0.3-0.1,0.6-0.3,0.9-0.5c0,0,0,0,0.1-0.1 c0.3-0.2,0.5-0.5,0.6-0.8c0.1-0.3,0.2-0.7,0.2-1.1c0-0.1,0-0.1,0-0.2c0-0.4-0.1-0.7-0.2-1c-0.2-0.3-0.4-0.6-0.7-0.9 c-0.3-0.3-0.6-0.5-1-0.7s-0.8-0.4-1.3-0.6c-0.3-0.1-0.6-0.2-0.8-0.3c-0.2-0.1-0.4-0.2-0.5-0.3c-0.1-0.1-0.2-0.3-0.3-0.4 c0-0.1-0.1-0.3-0.1-0.5c0-0.2,0-0.3,0.1-0.5C37.1,110.9,37.2,110.8,37.3,110.7z M46.2,110.7c0.1-0.1,0.2-0.2,0.4-0.3 c0.2-0.1,0.4-0.1,0.6-0.1c0.4,0,0.8,0.2,1,0.4c0.2,0.3,0.4,0.7,0.4,1.3l2.2,0c0-0.5-0.1-0.9-0.2-1.3c-0.1-0.4-0.3-0.7-0.6-1 c-0.2-0.3-0.5-0.5-0.9-0.7c-0.3-0.2-0.7-0.3-1.2-0.4l0-1.5l-1.2,0l0,1.5c-0.5,0-0.9,0.1-1.2,0.3c-0.4,0.1-0.7,0.3-0.9,0.6 c-0.3,0.2-0.5,0.5-0.6,0.8s-0.2,0.7-0.2,1.1c0,0.5,0.1,0.9,0.2,1.2c0.2,0.3,0.4,0.6,0.7,0.9s0.6,0.5,1,0.7c0.4,0.2,0.8,0.4,1.3,0.6 c0.3,0.1,0.5,0.2,0.7,0.3c0.2,0.1,0.4,0.2,0.5,0.3c0.1,0.1,0.2,0.3,0.3,0.4c0.1,0.2,0.1,0.3,0.1,0.5c0,0.2,0,0.3-0.1,0.5 c-0.1,0.1-0.2,0.3-0.3,0.4c-0.1,0.1-0.3,0.2-0.5,0.2c-0.2,0.1-0.4,0.1-0.6,0.1c-0.2,0-0.4,0-0.6-0.1c-0.2-0.1-0.4-0.2-0.5-0.3 c-0.2-0.1-0.3-0.3-0.4-0.5c-0.1-0.2-0.1-0.5-0.1-0.8l-2.2,0c0,0.6,0.1,1,0.3,1.4s0.4,0.7,0.7,1c0.3,0.3,0.6,0.5,1,0.6 c0.4,0.1,0.8,0.2,1.2,0.3l0,1.4l1.2,0l0-1.4c0.5,0,0.9-0.1,1.2-0.3c0.3-0.1,0.6-0.3,0.9-0.5c0,0,0,0,0.1-0.1 c0.3-0.2,0.5-0.5,0.6-0.8c0.1-0.3,0.2-0.7,0.2-1.1c0-0.1,0-0.1,0-0.2c0-0.4-0.1-0.7-0.2-1c-0.2-0.3-0.4-0.6-0.7-0.9 c-0.3-0.3-0.6-0.5-1-0.7s-0.8-0.4-1.3-0.6c-0.3-0.1-0.6-0.2-0.8-0.3c-0.2-0.1-0.4-0.2-0.5-0.3c-0.1-0.1-0.2-0.3-0.3-0.4 c0-0.1-0.1-0.3-0.1-0.5c0-0.2,0-0.3,0.1-0.5C46,110.9,46.1,110.8,46.2,110.7z M106.2,301.8c-7.4,1-12.2-2.5-15.1-4 c-4-2-10,6.4-8.9,10.9c0,0,25.7,5.7,33.6,2.4C115.8,311,117,300.3,106.2,301.8z" style="fill: rgb(253, 189, 92);"/></g><g id="__id16_su4nqsmais"><path d="M235.1,171.6c-2,19.1-4.9,61.3-6.6,87.7c0.5,0.9,1,1.9,1.3,2.9c1.4,4.4,0.4,8.7-2.2,11.3 c-0.3,5.5-0.5,8.8-0.5,8.8v110.3h-35.7v-49.3c-11,15-23.8,19.4-33.6,20.5c-8.7-31.8-27.9-46.2-41.8-52.6 c-6.1-22.7-11.6-54.2-11.6-54.2l14.3-6.8l-4.8-25.9c-9.1-7.6-11.1-9.2-16.6-16.1c-4.4-5.4-1.7-7.6-1.7-7.6c-5-6.7,0.7-14.7,0.7-14.7 c-3.4-4.2-5.4-11.4-2.6-14.8c0,0-8.5-9-2.2-13.7l0.4,0.3c0-0.3,0.1-0.5,0.2-0.7c0,0,0,0,0-0.1c0.1-0.2,0.1-0.4,0.2-0.5 c0-0.1,0.1-0.1,0.1-0.2c0.1-0.1,0.2-0.3,0.3-0.4c0-0.1,0.1-0.1,0.1-0.2c0.1-0.2,0.3-0.3,0.5-0.5c0.1-0.1,0.1-0.1,0.2-0.1 c6.8-4.8,20.9,10.4,25.3,17.4c4.5,7.1,7.4,11.2,11.7,14.9c4.3,3.7,17.7,14.6,17.7,14.6l-0.2,0.1l0.7,0.6c1.9,1.5,4.6,1.3,6.2-0.4 l10,25.9l3.6-1.7c0,0,9.8-29.3,20.6-41C196.3,177.3,220.6,173.3,235.1,171.6z M240.4,171c0.5-0.1,1-0.1,1.4-0.1 C241.4,170.9,241,170.9,240.4,171z M241.9,170.8C241.9,170.8,241.9,170.8,241.9,170.8C241.9,170.8,241.9,170.8,241.9,170.8 L241.9,170.8z M309.5,171.8C309.5,171.8,309.5,171.8,309.5,171.8c1.7,0.2,3.4,0.3,5.2,0.5C313,172.1,311.2,172,309.5,171.8z M423.6,338.9c-6.3-26.9-29.9-138.6-45.3-150c-11.5-8.5-35.4-13.3-57.7-15.9c-3,13.8-9,41.9-13.8,65.2c-8.8-3.6-25-9.6-27.6-9.7 c-3.7-0.1-6.2,3.4-6.3,6.2c-0.1,3.1,13.2,9.2,18.4,12.1c0,0-17.2,0-20.4,1.6c-2.7,1.4-4.9,4.4-4.4,7.6c0.2,1.1,0.7,2.1,1.4,3 c-4,1.1-6.5,5-6.1,7.6c0.6,4.1,4.2,7.6,9.1,8.6c-4.7-0.9-9.3,7.1,0.8,10.1c7.7,2.3,17.3,4.7,25.2,5.4c-1,3.9-2.1,7.9-1.7,11.8 c0.2,2.2,1.8,4.8,4.1,7.6c0,29.6,0.6,67.4,1,82.4h59C377.1,392.6,440.3,410.2,423.6,338.9z M70.9,174.1v-5.8c0-0.1,0-0.1-0.1-0.1 H21.4c-0.1,0-0.1,0-0.1,0.1v5.8c0,0.1,0,0.1,0.1,0.1h49.4C70.9,174.2,70.9,174.2,70.9,174.1z M21.4,156.7c-0.1,0-0.1,0-0.1,0.1v5.9 c0,0.1,0,0.1,0.1,0.1h61.8c0.1,0,0.1,0,0.1-0.1v-5.9c0-0.1,0-0.1-0.1-0.1H21.4z M247.9,180.9c1.8,2.4,4,4.6,6.5,6.6 c0.2,0.2,0.5,0.4,0.7,0.5c0.6,0.4,1.1,0.8,1.7,1.2c0,0,0,0,0.1,0.1c4,2.6,8.7,4.5,14.4,5c2.5,0.2,5,0.1,7.4-0.3c0,0,0,0,0,0 c1.9-0.3,3.8-0.9,5.6-1.6c0.1,0,0.2-0.1,0.3-0.1c0.8-0.3,1.5-0.6,2.3-1c0.4-0.2,0.9-0.4,1.3-0.6c0.1,0,0.1,0,0.2-0.1 c0.4-0.2,0.7-0.4,1.1-0.6c0.1,0,0.1-0.1,0.2-0.1c0.2-0.1,0.3-0.2,0.5-0.3c0.7-0.4,1.4-0.8,2-1.2c0.6-0.4,1.2-0.8,1.8-1.2 c1-0.7,2-1.4,2.9-2.2c0.3-0.2,0.5-0.4,0.8-0.6c0.1-0.1,0.3-0.2,0.4-0.4c0.6-0.5,1.2-1,1.7-1.5c0.2-0.1,0.3-0.3,0.5-0.4 c0.6-0.6,1.2-1.1,1.8-1.7c0.1-0.1,0.2-0.2,0.3-0.3c0.1-0.1,0.1-0.2,0.2-0.2c0.3-0.3,0.7-0.7,1-1c0.5-0.5,0.9-1,1.4-1.5 c0.4-0.5,0.8-0.9,1.2-1.4c0.1-0.1,0.2-0.2,0.3-0.3c1.1-1.3,2.1-2.5,3.1-3.7l0,0c0,0,0,0,0,0c-0.1,0-0.3,0-0.4,0c-0.2,0-0.3,0-0.5,0 c0,0,0.1,0,0.2,0c-0.3,0-0.7-0.1-1-0.1l0.3-20.2c-0.2,0.5-32.1-28.2-32.1-28.2c0-0.1-0.1-0.2-0.1-0.4c0.7-0.6,1.3-1.2,1.9-1.9 c4.6-5.4,4.8-12.7,0.6-16.3c-2.8-2.4-6.9-2.5-10.7-0.7c0.2-7.9,0.7-25.8,0.5-26.3c-5-3.1-25-0.5-25-0.5s-1.3,2.5-2.7,7.3 c-1.6,5.8-4.5,16.7-5.2,20.4c-0.1,0.4-0.3,0.7-0.7,0.9c-2.5,1.1-12.8,5-13.1,7.5c-0.3,2.7,4,8.1,5.1,9.7c0.2,0.3,0.5,1.5,0.4,1.8 c-0.9,3.3-4.5,16.2-2,21.5c2.4,5.1,13.4,6.3,22.5,7.6v16.6c-0.8,0-1.2,0-1.2,0s-0.3,0-1,0.1c0,0,0,0,0,0c0,0,0,0,0,0 c-0.1,0-0.2,0-0.4,0c-0.1,0-0.1,0-0.2,0c0,0,0,0-0.1,0c-0.2,0-0.4,0-0.6,0.1c0,0,0,0-0.1,0c-0.1,0-0.1,0-0.2,0c0,0,0,0,0,0 c-0.6,0.1-1.2,0.1-2,0.2l0,0l0,0C243.3,174,245.3,177.5,247.9,180.9C247.9,180.9,247.9,180.9,247.9,180.9z M144.4,169 c-9.5-7.1-26.3-14.8-33.6-17.7c-6.3-2.6-10.4-2.2-13.1-0.9l1.4,1.1l53.4,42.3l-3.9-18.5C147.9,172.8,146.5,170.6,144.4,169z M77.8,144.2H21.2V39.8h148.4v104.4H89.9l-0.1-0.1c-3.6-2.8-7.9-4.6-12.4-5.3l-0.1,0c-0.9-0.1-1.6,0.8-1.3,1.6 C76.5,141.8,77.1,143,77.8,144.2z M27.7,111.5c0-0.2,0-0.3,0.1-0.5s0.1-0.3,0.2-0.4c0.1-0.1,0.2-0.2,0.4-0.3 c0.2-0.1,0.4-0.1,0.6-0.1c0.4,0,0.8,0.2,1,0.4c0.2,0.3,0.4,0.7,0.4,1.3l2.2,0c0-0.5-0.1-0.9-0.2-1.3c-0.1-0.4-0.3-0.7-0.6-1 c-0.2-0.3-0.5-0.5-0.9-0.7c-0.4-0.2-0.7-0.3-1.2-0.4l0-1.5l-1.2,0l0,1.5c-0.5,0-0.9,0.1-1.2,0.3s-0.7,0.3-0.9,0.6 c-0.3,0.2-0.5,0.5-0.6,0.8s-0.2,0.7-0.2,1.1c0,0.5,0.1,0.9,0.2,1.2c0.2,0.3,0.4,0.6,0.7,0.9c0.3,0.3,0.6,0.5,1,0.7 c0.4,0.2,0.8,0.4,1.3,0.6c0.3,0.1,0.5,0.2,0.7,0.3c0.2,0.1,0.4,0.2,0.5,0.3c0.1,0.1,0.2,0.3,0.3,0.4c0.1,0.2,0.1,0.3,0.1,0.5 c0,0.2,0,0.3-0.1,0.5c-0.1,0.1-0.2,0.3-0.3,0.4c-0.1,0.1-0.3,0.2-0.5,0.2s-0.4,0.1-0.6,0.1c-0.2,0-0.4,0-0.6-0.1 c-0.2-0.1-0.4-0.2-0.5-0.3c-0.2-0.1-0.3-0.3-0.4-0.5c-0.1-0.2-0.1-0.5-0.1-0.8l-2.2,0c0,0.6,0.1,1,0.3,1.4s0.4,0.7,0.7,1 c0.3,0.3,0.6,0.5,1,0.6c0.4,0.1,0.8,0.2,1.2,0.3l0,1.4l1.2,0l0-1.4c0.5,0,0.9-0.1,1.2-0.3c0.3-0.1,0.6-0.3,0.9-0.5c0,0,0,0,0.1-0.1 c0.3-0.2,0.5-0.5,0.6-0.8c0.1-0.3,0.2-0.7,0.2-1.1c0-0.1,0-0.1,0-0.2c0-0.4-0.1-0.7-0.2-1c-0.2-0.3-0.4-0.6-0.7-0.9 c-0.3-0.3-0.6-0.5-1-0.7c-0.4-0.2-0.8-0.4-1.3-0.6c-0.3-0.1-0.6-0.2-0.8-0.3c-0.2-0.1-0.4-0.2-0.5-0.3c-0.1-0.1-0.2-0.3-0.3-0.4 C27.8,111.9,27.7,111.7,27.7,111.5z M36.9,111.5c0-0.2,0-0.3,0.1-0.5c0.1-0.1,0.1-0.3,0.2-0.4c0.1-0.1,0.2-0.2,0.4-0.3 s0.4-0.1,0.6-0.1c0.4,0,0.8,0.2,1,0.4c0.2,0.3,0.4,0.7,0.4,1.3l2.2,0c0-0.5-0.1-0.9-0.2-1.3c-0.1-0.4-0.3-0.7-0.6-1 c-0.2-0.3-0.5-0.5-0.9-0.7c-0.3-0.2-0.7-0.3-1.2-0.4l0-1.5l-1.2,0l0,1.5c-0.5,0-0.9,0.1-1.2,0.3c-0.4,0.1-0.7,0.3-0.9,0.6 c-0.3,0.2-0.5,0.5-0.6,0.8s-0.2,0.7-0.2,1.1c0,0.5,0.1,0.9,0.2,1.2c0.2,0.3,0.4,0.6,0.7,0.9c0.3,0.3,0.6,0.5,1,0.7 c0.4,0.2,0.8,0.4,1.3,0.6c0.3,0.1,0.5,0.2,0.7,0.3c0.2,0.1,0.4,0.2,0.5,0.3c0.1,0.1,0.2,0.3,0.3,0.4c0.1,0.2,0.1,0.3,0.1,0.5 c0,0.2,0,0.3-0.1,0.5c-0.1,0.1-0.2,0.3-0.3,0.4c-0.1,0.1-0.3,0.2-0.5,0.2s-0.4,0.1-0.6,0.1c-0.2,0-0.4,0-0.6-0.1 c-0.2-0.1-0.4-0.2-0.5-0.3c-0.2-0.1-0.3-0.3-0.4-0.5c-0.1-0.2-0.1-0.5-0.1-0.8l-2.2,0c0,0.6,0.1,1,0.3,1.4s0.4,0.7,0.7,1 c0.3,0.3,0.6,0.5,1,0.6c0.4,0.1,0.8,0.2,1.2,0.3l0,1.4l1.2,0l0-1.4c0.5,0,0.9-0.1,1.2-0.3c0.3-0.1,0.6-0.3,0.9-0.5c0,0,0,0,0.1-0.1 c0.3-0.2,0.5-0.5,0.6-0.8c0.1-0.3,0.2-0.7,0.2-1.1c0-0.1,0-0.1,0-0.2c0-0.4-0.1-0.7-0.2-1c-0.2-0.3-0.4-0.6-0.7-0.9 c-0.3-0.3-0.6-0.5-1-0.7s-0.8-0.4-1.3-0.6c-0.3-0.1-0.6-0.2-0.8-0.3c-0.2-0.1-0.4-0.2-0.5-0.3c-0.1-0.1-0.2-0.3-0.3-0.4 C37,111.9,36.9,111.7,36.9,111.5z M45.9,111.5c0-0.2,0-0.3,0.1-0.5c0.1-0.1,0.1-0.3,0.2-0.4c0.1-0.1,0.2-0.2,0.4-0.3 c0.2-0.1,0.4-0.1,0.6-0.1c0.4,0,0.8,0.2,1,0.4c0.2,0.3,0.4,0.7,0.4,1.3l2.2,0c0-0.5-0.1-0.9-0.2-1.3c-0.1-0.4-0.3-0.7-0.6-1 c-0.2-0.3-0.5-0.5-0.9-0.7c-0.3-0.2-0.7-0.3-1.2-0.4l0-1.5l-1.2,0l0,1.5c-0.5,0-0.9,0.1-1.2,0.3c-0.4,0.1-0.7,0.3-0.9,0.6 c-0.3,0.2-0.5,0.5-0.6,0.8s-0.2,0.7-0.2,1.1c0,0.5,0.1,0.9,0.2,1.2c0.2,0.3,0.4,0.6,0.7,0.9s0.6,0.5,1,0.7c0.4,0.2,0.8,0.4,1.3,0.6 c0.3,0.1,0.5,0.2,0.7,0.3c0.2,0.1,0.4,0.2,0.5,0.3c0.1,0.1,0.2,0.3,0.3,0.4c0.1,0.2,0.1,0.3,0.1,0.5c0,0.2,0,0.3-0.1,0.5 c-0.1,0.1-0.2,0.3-0.3,0.4c-0.1,0.1-0.3,0.2-0.5,0.2c-0.2,0.1-0.4,0.1-0.6,0.1c-0.2,0-0.4,0-0.6-0.1c-0.2-0.1-0.4-0.2-0.5-0.3 c-0.2-0.1-0.3-0.3-0.4-0.5c-0.1-0.2-0.1-0.5-0.1-0.8l-2.2,0c0,0.6,0.1,1,0.3,1.4s0.4,0.7,0.7,1c0.3,0.3,0.6,0.5,1,0.6 c0.4,0.1,0.8,0.2,1.2,0.3l0,1.4l1.2,0l0-1.4c0.5,0,0.9-0.1,1.2-0.3c0.3-0.1,0.6-0.3,0.9-0.5c0,0,0,0,0.1-0.1 c0.3-0.2,0.5-0.5,0.6-0.8c0.1-0.3,0.2-0.7,0.2-1.1c0-0.1,0-0.1,0-0.2c0-0.4-0.1-0.7-0.2-1c-0.2-0.3-0.4-0.6-0.7-0.9 c-0.3-0.3-0.6-0.5-1-0.7s-0.8-0.4-1.3-0.6c-0.3-0.1-0.6-0.2-0.8-0.3c-0.2-0.1-0.4-0.2-0.5-0.3c-0.1-0.1-0.2-0.3-0.3-0.4 C45.9,111.9,45.9,111.7,45.9,111.5z M101.8,340.8c-11.6-1.1-27.6-9.6-34.7-9.3c-7.1,0.3-33,37.8-32.3,38.4 c14.2,12.1,92.9,14.5,96.6,10.6c3.7-3.9-2.3-28.2-4.5-35C124.6,338.6,113.4,341.9,101.8,340.8z" style="fill: rgb(255, 255, 255);"/></g><g id="__id17_su4nqsmais"><path d="M330.3,105.2c-2.6,7.6-22.3,46.3-22.3,46.3c-0.2,0.5-32.1-28.2-32.1-28.2c0-0.1-0.1-0.2-0.1-0.4 c0.1-0.1,0.3-0.2,0.4-0.3c0.1-0.1,0.3-0.2,0.4-0.4c0.4-0.4,0.8-0.8,1.1-1.2c4.6-5.4,4.8-12.7,0.6-16.3c-0.3-0.3-0.7-0.5-1-0.7 c-0.1-0.1-0.2-0.1-0.3-0.2c-0.3-0.1-0.5-0.3-0.8-0.4c-0.1,0-0.2-0.1-0.3-0.1c-0.8-0.3-1.6-0.4-2.5-0.5c-0.1,0-0.1,0-0.2,0 c-0.4,0-0.8,0-1.2,0c0,0-0.1,0-0.1,0c-1.4,0.1-2.8,0.5-4.2,1.2c0,0,0,0,0,0c0.2-7.9,0.7-25.8,0.5-26.3c-5-3.1-25-0.5-25-0.5 s-1.3,2.5-2.7,7.3c-6.5-0.1-9.5-10-8.3-14.6c0.9-3.5,5.1-7.9,8.4-8.7c-0.5-6,1.6-8.6,4.9-10.8c4.4-2.9,10.7-2.3,14.8,0.6 c2.8-4.2,8.8-5.4,13.6-4.6c5.1,0.9,7.7,4.7,9.6,9c0.1,0.1,0.2,0.1,0.2,0.2C320.5,61.4,339.2,79.5,330.3,105.2z M154.2,195.2 l-55.1-43.8l-9.3-7.3c-3.6-2.8-7.9-4.6-12.4-5.3l-0.1,0c-0.9-0.1-1.6,0.8-1.3,1.6c1.7,4.3,4.5,8.2,8.1,11l7.5,5.9 c0.2-1,0.6-1.9,1.4-2.5c6.7-5.3,21,10.2,25.5,17.3c4.5,7.1,7.4,11.2,11.7,14.9c4.3,3.7,17.7,14.6,17.7,14.6l-0.2,0.1l0.7,0.6 c2,1.6,5,1.3,6.6-0.8l0,0C156.6,199.7,156.2,196.8,154.2,195.2z M169.6,20.2H21.2c-0.4,0-0.8,0.3-0.8,0.8v21.2 c0,0.4,0.3,0.8,0.8,0.8h148.4c0.4,0,0.8-0.3,0.8-0.8V20.9C170.4,20.5,170,20.2,169.6,20.2z" style="fill: rgb(30, 64, 175);"/></g><g id="__id18_su4nqsmais"><path d="M115.8,311c-7.9,3.4-33.5-2.3-33.6-2.4C29.1,323.4,0,394,0,394h162.2C160,340.3,133.6,319.2,115.8,311z M131.4,380.5c-3.7,3.9-82.3,1.5-96.6-10.6c-0.7-0.6,25.2-38.1,32.3-38.4c7.1-0.3,23.1,8.2,34.7,9.3s22.8-2.2,25,4.7 C129,352.3,135.1,376.6,131.4,380.5z M88.1,297.9c-1.9-4.7-6.8-18.6-2.1-24.7c0,0,5.8-2.5,11.8,1.9c1,0.8,2.1,1.7,3.1,3 c1.5,1.8,3.1,2.8,4.8,3.3c6.6,2,14.4-2.7,17.3,1.8c1.7,2.6,3.6,4.6,5.1,6c1.8,1.6,3.1,2.4,3.1,2.4s-8.1,11.4-16.5,13.9 c-1.1-2.4-3.5-4.5-8.7-3.8c-7.4,1-12.2-2.5-15.1-4C90.2,297.3,89.1,297.4,88.1,297.9z M295.2,302.6c-0.4-4,0.7-8,1.7-11.8 c-7.9-0.7-17.5-3.1-25.2-5.4c-10.1-3.1-5.5-11-0.8-10.1c-4.9-1-8.5-4.6-9.1-8.6c-0.4-2.6,2.1-6.5,6.1-7.6c-0.7-0.8-1.2-1.8-1.4-3 c-0.6-3.2,1.7-6.2,4.4-7.6c3.2-1.7,20.4-1.6,20.4-1.6c-5.1-3-18.5-9-18.4-12.1c0.1-2.8,2.6-6.3,6.3-6.2c1.6,0,8,2.2,14.8,4.7 l-4.4-9.8c-1.6-3.6-5.4-5.9-9.6-6l-137.7-2.5c-7.7-0.1-13,7-10,13.5l35.1,77.5c1.6,3.6,5.4,5.9,9.6,6l126.1,2.3 C298.8,310,295.6,305.9,295.2,302.6z M223.8,275.7c-5.2,1.3-11-2.6-12.9-8.7s0.8-12.2,6-13.5s11,2.6,12.9,8.7 C231.7,268.3,229,274.4,223.8,275.7z" style="fill: rgb(30, 64, 175);"/></g><g id="__id19_su4nqsmais"><path d="M130.7,186.6c-4.3-3.7-7.3-7.9-11.6-14.7c-3.6-5.7-13.9-17.3-21.5-18.6c-2-0.3-3.7,0-5.1,1.1c-0.8,0.6-1.3,1.5-1.6,2.6 l-0.3-0.3c-1.4,1.1-2.2,2.4-2.4,4c-0.6,4.2,3,8.8,4.3,10.3c-2.4,3.7-0.6,10.4,2.7,14.8c-1.1,1.8-4.8,8.7-0.8,14.7 c-0.2,0.4-0.5,0.9-0.6,1.7c-0.2,1.8,0.7,3.9,2.7,6.4c5.3,6.6,7.4,8.4,15.4,15.1l1.1,0.9l4.7,25.1l-13.7,6.6 c-0.3,0.1-0.5,0.5-0.4,0.8c0,0.2,2,11.2,4.8,24.9c0.5,0,1,0,1.5,0c-2.5-12.1-4.3-22.2-4.8-24.6l33-15.8l-0.6-1.4l-18.4,8.8l-4.6-25 c0,0,0-0.1,0-0.1c0,0,0,0,0-0.1c-0.1-0.3-11.8-28.4-9.4-38c0.1-0.2,0-0.4-0.1-0.6c0-0.1-4.5-6.4-8.1-13.3 c-4.5-8.7-5.7-14.5-3.3-16.4c1-0.8,2.3-1.1,3.9-0.8c6.8,1.2,16.8,12.1,20.5,17.9c4.4,7,7.4,11.2,11.9,15.1 c4.2,3.7,17.6,14.5,17.7,14.6c0.3,0.3,0.8,0.2,1.1-0.1c0.3-0.3,0.2-0.8-0.1-1.1C148.3,201.1,134.9,190.3,130.7,186.6z M96.5,186.6 c1.1,0.3,3.9,1.2,6.8,2.9c0.1,5.3,2,12.5,4.1,19.1c-4-3.6-10.4-8-11.4-8.6C92.1,194.6,95.4,188.3,96.5,186.6z M97.7,207.5 c-2.5-3.1-2.6-5.1-2.2-6.1c2.2,1.5,10.3,7.1,12.8,10.3c1.4,4,2.7,7.5,3.6,9.8C104.9,215.6,102.7,213.7,97.7,207.5z M103.5,185.8 c-0.1,0.6-0.2,1.2-0.2,1.9c-3.1-1.7-5.9-2.5-6.7-2.7c-3.2-4.1-4.9-10.7-2.5-13.7c0.2-0.3,0.2-0.7,0-1c0-0.1-4.9-5.3-4.3-9.5 c0.1-0.8,0.5-1.6,1.1-2.2C90.7,167.1,101.4,182.8,103.5,185.8z M56,145C56,145,56,145,56,145l17.8,0c0,0,0,0,0,0s0,0,0,0h4.4 c-0.3-0.5-0.6-1-0.9-1.5h-2.8v-17.8h72.9v17.8H88.9c0.3,0.2,0.6,0.5,0.9,0.7l1,0.8h57.4c0,0,0,0,0,0s0,0,0,0h21.4 c0.4,0,0.8-0.3,0.8-0.8V42.1c0,0.4-0.3,0.8-0.8,0.8h-0.8v15.8H149V42.9h-1.5v15.8H74.6V42.9h-1.5v15.8H56.8V42.9h-1.5v15.8H22V42.9 h-0.8c-0.4,0-0.8-0.3-0.8-0.8v102.1c0,0.4,0.3,0.8,0.8,0.8H56C56,145,56,145,56,145z M73.1,143.5H56.8v-17.8h16.3 C73.1,125.7,73.1,143.5,73.1,143.5z M168.9,124.2H149v-20.6h19.9V124.2z M168.9,102.1H149V82h19.9V102.1z M147.5,102.1H74.6V82h72.9 V102.1z M73.1,102.1H56.8V82h16.3C73.1,82,73.1,102.1,73.1,102.1z M55.3,102.1H22V82h33.3V102.1z M22,103.6h33.3v20.6H22 C22,124.2,22,103.6,22,103.6z M56.8,103.6h16.3v20.6H56.8V103.6z M74.6,124.2v-20.6h72.9v20.6H74.6z M149,143.5v-17.8h19.9v17.8H149 z M168.9,60.1v20.4H149V60.1H168.9z M147.5,60.1v20.4H74.6V60.1H147.5z M73.1,60.1v20.4H56.8V60.1H73.1z M55.3,60.1v20.4H22V60.1 H55.3z M22,125.7h33.3v17.8H22C22,143.5,22,125.7,22,125.7z M112.1,340.3c-3.1,0.1-6.7,0.1-10.2-0.2c-5.8-0.5-12.9-3-19.2-5.2 c-6.4-2.3-12-4.2-15.6-4.1c-7.5,0.3-32.2,36.4-33,38.7c-0.2,0.5,0,0.8,0.2,1c8.8,7.5,39.8,10.5,52.7,11.5c8.8,0.7,18.2,1,26.1,1 c9.9,0,17.5-0.6,18.8-2c4.3-4.5-2.8-31.1-4.3-35.8C125.9,340,119.5,340.1,112.1,340.3z M130.8,380c-1.3,1.4-19.5,2.3-43.8,0.5 c-26.4-2-45-5.9-51.4-10.8c2.2-4.4,25.3-37.1,31.5-37.3c3.4-0.1,9,1.9,15.1,4c6.4,2.2,13.6,4.8,19.5,5.3c3.6,0.3,7.2,0.3,10.4,0.2 c7.1-0.1,12.6-0.3,14,3.9C128.9,354.5,133.9,376.7,130.8,380z M247.3,99.3c0.4,1.1,0.4,2.2,0.1,3.3c-0.4,1.5-1.3,3.4-3,3 c-2.6-0.7-1.9-5.5,0-7C246.1,97.4,246.9,98.3,247.3,99.3z M256.6,94.9c0.3,0.3,0.3,0.7,0.1,1.1c-0.1,0.2-0.4,0.3-0.6,0.3 c-0.2,0-0.4-0.1-0.5-0.2c-0.2-0.2-5.5-4.7-13.3-2.3c-0.4,0.1-0.8-0.1-0.9-0.5c-0.1-0.4,0.1-0.8,0.5-0.9 C250.5,89.6,256.4,94.7,256.6,94.9z M424.3,338.7c-0.8-3.2-1.8-7.6-3-12.9c-9.4-41.3-28.8-127.3-42.6-137.5 c-8.2-6.1-23.5-10.9-45.3-14.3c-8.7-1.4-17.3-2.3-24.9-3l0.2-19.5c0-0.3-0.2-0.6-0.5-0.7c-1.7-1.1-19.5-17-31.4-27.7 c0.5-0.5,1.1-1,1.5-1.6c4.8-5.7,5.1-13.5,0.5-17.3c-2.7-2.2-6.6-2.7-10.4-1.3c0.6-24.8,0.5-25.2,0.4-25.4c-0.1-0.2-0.2-0.3-0.3-0.4 c-5.2-3.2-24.6-0.7-25.5-0.6c-0.2,0-0.4,0.2-0.6,0.4c-0.1,0.1-1.4,2.6-2.7,7.4c-1.6,5.9-4.5,16.8-5.2,20.4c0,0.2-0.1,0.3-0.3,0.4 c-0.3,0.1-0.8,0.3-1.4,0.6c-7.3,3.1-11.9,5.4-12.1,7.5c-0.3,2.3,2.1,5.9,4.7,9.4c0.2,0.3,0.4,0.6,0.6,0.8c0.1,0.2,0.3,1,0.3,1.2 l-0.1,0.2c-1.1,4-4.5,16.3-1.9,21.8c2.4,5.1,12.3,6.5,21,7.8l1.4,0.2v15.2l-0.3,0c-0.1,0-0.2,0-0.2,0c-1.9,0.1-47,3.4-57.9,15.1 c-6.8,7.2-13,21-16.9,30.6l1.6,0c3.8-9.5,9.9-22.8,16.3-29.6c8.4-9,39.8-13,52-14.2c8.2,17.9,20.7,22.6,29.7,23.4 c0.8,0.1,1.7,0.1,2.5,0.1c14.9,0,27.8-12,36.2-22.6c7.2,0.7,15.2,1.6,23.3,2.8c21.6,3.4,36.6,8.1,44.7,14.1 c13.3,9.9,33.4,98.7,42,136.6c1.2,5.3,2.2,9.7,3,13c4.8,20.5,3.3,35.4-4.4,44.2c-11.5,13.1-34.3,10.8-49.3,9.3 c-3.7-0.4-7-0.7-9.4-0.7c-3.1-3.3-38.3-41.5-42.4-47.3c-4-5.7,1.2-16.5,1.2-16.6c0,0,0,0,0-0.1c1.5,1.1,2.9,2,4,2.8 c0.7,0.5,1.5,0.7,2.3,0.7c0.7,0,1.5-0.2,2.2-0.6c2.9-1.8,8.7-5.8,15.3-12.9c6-6.5,9.5-18.8,10.7-23.8c0.4-1.8-0.4-3.7-2-4.6 c-1.6-0.9-3.1-1.8-4.6-2.6c0,0,0,0,0,0c0,0,2.9-5,6.9-3.8c0.8,0.3,2.8,1.5,5.5,3.3c0,0,0.1,0,0.1,0.1c11.7,8.1,37,28.2,41.5,32.4 c5.5,5.2,14.5,16.9,14.6,17c0.1,0.2,0.4,0.3,0.6,0.3c0.2,0,0.3-0.1,0.5-0.2c0.3-0.3,0.4-0.7,0.1-1.1c-0.4-0.5-9.2-11.9-14.8-17.2 c-4.1-3.9-29.1-23.9-41.4-32.4c-1-8.7-5.5-47.8-6.6-49.5c-0.2-0.4-0.7-0.5-1-0.3c-0.4,0.2-0.5,0.7-0.3,1c0.7,1.7,4.1,28.8,6.2,47.6 c-2.2-1.5-3.8-2.4-4.6-2.7c-5.2-1.6-8.5,4.2-8.6,4.5c0,0,0,0,0,0c-10.9-6.2-17.9-10.1-19.1-10.9c-0.5-2.1-2.4-16.6-2.4-22 c0-7.1-5.3-10.1-9.9-12.8c-0.4-0.2-0.8-0.5-1.2-0.7c-3.4-2-29.7-12.1-33.4-12.2c0,0-0.1,0-0.1,0c-3.9,0-6.8,3.6-6.9,7 c-0.1,2.7,5.9,6,14.3,10.4c0.7,0.4,1.3,0.7,1.9,1c-5.2,0.1-15.3,0.4-17.8,1.7c-2.7,1.4-5.4,4.7-4.8,8.4c0.1,0.9,0.5,1.7,0.9,2.4 c-3.8,1.5-6.1,5.3-5.7,8.1c0.6,3.6,3.2,6.7,6.8,8.3c-1.3,0.7-2.4,2-2.8,3.5c-0.6,2.5,0.8,5.8,6.4,7.6c8.8,2.7,17.6,4.6,24.5,5.3 l0,0.1c-0.9,3.6-1.8,7.3-1.5,11.1c0.7,7,13.7,17.7,22.9,24.3c-0.1,0.1-0.2,0.1-0.2,0.2c-0.2,0.5-5.7,11.7-1.1,18.1 c3.9,5.6,35.1,39.4,41.6,46.4H192.1v-48.6v-31.2c0-0.4-0.3-0.8-0.8-0.8s-0.8,0.3-0.8,0.8V343c-8.8,11.8-19.9,18.5-33.1,20 c0.1,0.5,0.3,1,0.4,1.5c12.9-1.5,23.9-7.8,32.7-18.9v47.1c0,0.4,0.3,0.8,0.8,0.8h168c2.4,0,5.8,0.3,9.6,0.7 c5.5,0.6,11.9,1.2,18.5,1.2c11.9,0,24.3-2.2,32.1-11C427.6,375.1,429.2,359.7,424.3,338.7z M271.3,193.6 c-8.6-0.8-20.4-5.3-28.3-22.1c2.1-0.2,3.3-0.3,3.3-0.3l1.2,0c0.4,0,0.7-0.3,0.7-0.8v-16.6c0-0.4-0.3-0.7-0.6-0.7l-2.1-0.3 c-8.3-1.2-17.8-2.6-19.8-6.9c-1.1-2.4-1.1-6.7,0.1-12.9c0.7,0.6,4,3.1,8.4,3.1c1.2,0,2.5-0.2,3.8-0.6c0.4-0.1,0.6-0.6,0.5-1 s-0.6-0.6-1-0.5c-5.8,2-10.8-2.2-10.9-2.3c-0.2-0.1-0.4-0.2-0.6-0.2c0.4-2,0.9-4.1,1.6-6.4l0.1-0.2c0.2-0.6-0.2-2-0.5-2.5 c-0.1-0.2-0.4-0.5-0.6-0.8c-1.4-1.9-4.6-6.3-4.4-8.3c0.1-1.1,3.9-3.2,11.2-6.3c0.6-0.2,1.1-0.5,1.4-0.6c0.6-0.3,1-0.8,1.1-1.4 c0.7-3.6,3.6-14.5,5.2-20.3c1-3.7,2-6,2.4-6.8c5.6-0.7,19.5-1.9,23.8,0.2c0,1.9-0.2,11.4-0.5,25.8c0,0.3,0.1,0.5,0.3,0.6 c0.2,0.1,0.5,0.2,0.7,0.1c3.7-1.7,7.4-1.5,9.9,0.6c3.9,3.3,3.6,10.1-0.7,15.2c-0.6,0.7-1.2,1.3-1.8,1.8c-0.2,0.2-0.3,0.5-0.2,0.8 c0,0.1,0.1,0.2,0.1,0.3c0,0.1,0.1,0.3,0.2,0.4c23.5,21.2,29.9,26.6,31.8,28l-0.2,19.9c0,0.4,0.3,0.7,0.7,0.8l0.4,0 C299.4,183.1,286.3,194.9,271.3,193.6z M296,302.6c-0.4-3.5,0.5-7.1,1.4-10.6l0.2-1c0.1-0.2,0-0.4-0.1-0.6c-0.1-0.2-0.3-0.3-0.5-0.3 c-6.8-0.6-16-2.6-25-5.4c-4-1.2-6-3.4-5.4-5.8c0.4-1.7,2-3,3.7-3c0.2,0,0.4,0,0.6,0.1c0,0,0,0,0.1,0c0,0,0,0,0.1,0c0,0,0,0,0,0 c0.2,0,16.7-1.1,25.8,0c0.4,0,0.8-0.2,0.8-0.7c0-0.4-0.2-0.8-0.7-0.8c-8.8-1-24.5-0.1-25.9,0c-4.4-1-7.8-4.2-8.4-8 c-0.4-2.2,2-5.7,5.5-6.7c1.6-0.1,22.9-1.5,29.6,0c0.1,0,0.1,0,0.2,0c0.3,0,0.7-0.2,0.7-0.6c0.1-0.4-0.2-0.8-0.6-0.9 c-6.7-1.5-26.5-0.3-29.7,0c-0.5-0.7-0.9-1.5-1-2.3c-0.5-3,1.7-5.6,4-6.8c2.4-1.3,14.9-1.6,19.8-1.6c0.1,0,0.1,0,0.2,0h0 c0.3,0,0.6-0.2,0.7-0.6s-0.1-0.7-0.4-0.8c-1.2-0.7-2.7-1.5-4.5-2.4c-4.7-2.5-13.6-7.1-13.5-9c0.1-2.3,2.2-5.6,5.5-5.5 c3,0.1,29.1,9.9,32.6,12c0.4,0.2,0.8,0.5,1.2,0.7c4.5,2.6,9.2,5.3,9.2,11.5c0,5.5,2.1,21.6,2.5,22.7c0.1,0.3,0.2,0.4,25.6,14.7 c1,0.6,1.5,1.8,1.2,2.9c-1.2,4.9-4.6,16.9-10.4,23.1c-6.4,7-12.1,10.9-14.9,12.7c-0.9,0.5-2,0.5-2.8-0.1 C310.6,320.7,296.6,309,296,302.6z M149.3,175.2l4.1,19.4l-1.8-1.5l-3.7-17.6c-0.6-2.4-1.9-4.5-3.9-6c-9.2-7-25.9-14.6-33.4-17.6 c-3.3-1.3-6-1.9-8.1-1.9c-1.6,0-3,0.3-4.1,0.8l-1.3-1c5.2-2.9,11.3-0.4,14,0.7c7.6,3.1,24.4,10.7,33.8,17.8 C147.1,170.1,148.6,172.5,149.3,175.2z M158.9,215.2l-4.8-12.5c0.3-0.2,0.7-0.5,0.9-0.9l0,0c0.1-0.1,0.1-0.2,0.2-0.3l5.3,13.8 L158.9,215.2z" style="fill: inherit;"/></g></svg>