<svg xmlns="http://www.w3.org/2000/svg" xmlns:xlink="http://www.w3.org/1999/xlink" preserveAspectRatio="xMidYMid meet" version="1.0" viewBox="0.0 0.0 397.4 397.7" zoomAndPan="magnify" style="fill: rgb(122, 150, 241);" original_string_length="17684"><g id="__id89_sb5zsaz3fr" style="fill: rgb(255, 255, 255);"><path d="M387.2,289.4c-2.9-11.1-5.9-21.1-8.7-30.8c-5.4-18.5-10.5-35.9-14.9-58.2c-1.7-8.2-13.1-17-34.1-26.2 c-6.9-3-18.2-7.5-33.5-12.2l-5.1-4.4c-0.7-0.6-1.2-1.5-1.3-2.4l-1.7-13.4c0,0,0,0,0,0c0,0.1,0,0.2,0.1,0.4l-0.4-8.1 c0-0.2-0.1-0.4-0.3-0.5c-0.1,0-0.1-0.1-0.2-0.1c1.4-3.7,8.5-23.1,11.7-40c2.9-15.4-5.3-29-25.8-30.8c-2.6-0.2-5.2-0.4-7.6-0.4 c-3.2-4.7-8.6-7.5-14.3-7.7c-2.9-0.1-6.4,0.5-8.4,2.8c-1.1,1.3-1.5,2.7-1.3,4c-8.4-0.8-14.9,3.2-16.6,5.5 c-3.6,4.8-3.9,10.8-2.3,16.4c-0.2,1.9,0.3,6,0.6,7.2c0.8,3.3,2.6,5.3,3.7,6.2c0,0.3,0,0.5,0,0.5l-0.2,13.5 c-1.5,15.1-1,33.8,1.9,37.6c1.5,2,5.7,2.6,8.9,2.8c-0.3,1.5-1.1,5-2,9C227,163,183,178,178.2,183c-2.2,2.3-9.6,16.9-18.6,47.5 l-7.5,13l-0.4-5.2c0,0,0,0,0,0c0.4-0.1,0.6-0.4,0.6-0.8l-1.7-20.2c-0.1-0.8-0.5-1.6-1.1-2.1c-0.6-0.5-1.4-0.7-2.2-0.5l-0.3,0.1 c-0.4-5.5-0.9-11.1-1.6-13.9c-1.3-5.1-3.4-5.9-7.4-7.3c-0.6-0.2-1.3-0.5-2.1-0.7c-1-0.4-2.1-0.6-3.2-0.9c-1.9-0.4-3.9-0.9-5.3-2.1 c-1.8-1.6-2.2-4.4-2.5-6.9c-0.1-0.4-0.1-0.8-0.2-1.2c-0.1-0.6-0.2-1.2-0.3-1.8c-0.2-1.1-0.4-2.3-0.5-3.4c-0.6-4.9-4.1-7.4-7-7.1 c-1.8,0.2-3.8,1.6-3.5,5.1c0.2,1.9,0.2,10.1,0.2,15.6c-1.3-4.7-3-11.1-3.4-12.3l-0.5-1.2c-1.3-3.5-2.7-7.2-4.8-10.3 c-1.4-2.1-4.4-5.7-9-5.9c-2-0.1-3.9,0.7-5.1,2c-2.6-2.9-5.4-4-8.4-3.3c-2.9,0.6-4.5,2.7-4.7,5.8c-1-0.1-1.9,0.1-2.8,0.6 c-3.4,2.1-2.4,6.4-1.8,8.8c1.5,6.1,7.7,18.9,8.3,19.4c4.8,3.9,9.9,7.5,14.9,11c1.9,1.3,3.8,2.6,5.6,4c0.3,0.2,0.6,0.4,0.9,0.6 c1.1,0.7,2.4,1.6,2.8,2.7c0.3,0.9,0.7,5.5,1,10.4l-6,1.1c0,0,0,0,0,0c-1.3,0.2-2.2,1.4-2.3,2.7L97.5,246c0,0.2,0,0.5,0.2,0.6 c0.1,0.1,0.1,0.1,0.7,0.1c0.6,0,1.6-0.1,3.7-0.4c1,9,2.7,25.8,4.5,52.2c0.4,6.7,10.7,16.5,20.6,22.6c4.4,2.7,15.2,8.8,21.4,6.2 c10.2-4.2,36.3-21.7,39.1-29.3c0-0.1,0.1-0.1,0.1-0.2l1.4,14l-9.9,84.9c0,0.2,0,0.4,0.2,0.5c0.1,0.1,0.3,0.2,0.5,0.2c0,0,0,0,0,0 l13.2-0.6c0.3,0,0.5-0.2,0.6-0.4l1.4-3.8l92.9-0.2l2.4,4.8c0.1,0.2,0.3,0.4,0.6,0.4h51c0.2,0,0.4-0.1,0.5-0.2 c0.1-0.1,0.2-0.3,0.2-0.5L337,348c27.3,7.2,43,6.9,50.9-1C397.4,337.5,394.5,317.1,387.2,289.4z M287.6,141.2 c0.2,0.1,0.3,0.4,0.3,0.5C287.9,141.5,287.8,141.4,287.6,141.2C287.6,141.2,287.6,141.2,287.6,141.2z M229.6,163.5L229.6,163.5 C229.6,163.5,229.6,163.5,229.6,163.5C229.6,163.5,229.6,163.5,229.6,163.5z M287.4,391.2L287.4,391.2L287.4,391.2L287.4,391.2z M336.2,347.1L336.2,347.1C336.2,347.1,336.2,347.1,336.2,347.1L336.2,347.1z" style="fill: inherit;"/><path d="M95.8,149.3c2.2,0,4.3-0.8,6-2.5l20.6-20.5c1.3-1.3,3.1-2.1,5-2.1h50.3c5.8,0,10.5-4.7,10.5-10.5V10.5h0 c0-5.8-4.7-10.5-10.5-10.5H10.5C4.7,0,0,4.7,0,10.5v103.3c0,5.8,4.7,10.5,10.5,10.5h53.7c1.9,0,3.7,0.7,5,2.1l20.6,20.5 C91.4,148.5,93.6,149.3,95.8,149.3z" style="fill: inherit;"/></g><g id="__id90_sb5zsaz3fr"><path d="M177.6,0.7H10.5c-5.4,0-9.8,4.4-9.8,9.8v103.3c0,5.4,4.4,9.8,9.8,9.8h53.7c2.1,0,4,0.8,5.5,2.3l20.6,20.5 c3,3,8,3,11,0l20.6-20.5c1.5-1.5,3.4-2.3,5.5-2.3h50.3c5.4,0,9.8-4.4,9.8-9.8V10.5C187.4,5.1,183,0.7,177.6,0.7z M54.8,93.7 c0,4.8-3.9,8.6-8.6,8.6s-8.6-3.9-8.6-8.6v-1.3c0-0.9,0.7-1.6,1.6-1.6h14.1c0.9,0,1.6,0.7,1.6,1.6C54.8,92.4,54.8,93.7,54.8,93.7z M55.9,78.1c-0.6,0.2-1,0.8-1,1.5v3.7c0,0.9-0.7,1.6-1.6,1.6H39.2c-0.9,0-1.6-0.7-1.6-1.6v-3.7c0-0.7-0.4-1.3-1-1.5 C25.7,74.2,18,63.8,18,51.6c0-15,11.7-27.3,26.6-28.2c0.9-0.1,1.7,0.7,1.7,1.6v25c0,0.9,0.7,1.6,1.6,1.6h25c0.9,0,1.6,0.8,1.6,1.7 C73.7,64.7,66.2,74.3,55.9,78.1z M79.9,45.5h-25c-0.9,0-1.6-0.7-1.6-1.6v-25c0-0.9,0.8-1.6,1.7-1.6c14.3,0.8,25.7,12.2,26.5,26.5 C81.5,44.8,80.8,45.5,79.9,45.5z M106.8,95.1c0,2.9-2.4,5.3-5.3,5.3s-5.3-2.4-5.3-5.3V31.7c0-2.9,2.4-5.3,5.3-5.3s5.3,2.4,5.3,5.3 V95.1z M127.1,95.1c0,2.9-2.4,5.3-5.3,5.3l0,0c-2.9,0-5.3-2.4-5.3-5.3V56.4c0-2.9,2.4-5.3,5.3-5.3l0,0c2.9,0,5.3,2.4,5.3,5.3V95.1z M147.4,95.1c0,2.9-2.4,5.3-5.3,5.3s-5.3-2.4-5.3-5.3v-29c0-2.9,2.4-5.3,5.3-5.3s5.3,2.4,5.3,5.3V95.1z M166.2,95.1 c0,2.9-2.4,5.3-5.3,5.3l0,0c-2.9,0-5.3-2.4-5.3-5.3V75.5c0-2.9,2.4-5.3,5.3-5.3l0,0c2.9,0,5.3,2.4,5.3,5.3V95.1z M272.3,361.3 l15.5,30.5l-92.4,0.2l11.1-31.5L272.3,361.3z M272.9,352.5L272.9,352.5l-0.2,7.4L272.9,352.5z M229.1,147.9 c-2.8-3.5-3.2-22.1-1.7-37.1l0.2-13.6c0,0,0.1-3.7,0.1-7.3c0-0.8,2.5-1.4,3.3-1.1c2.9,1.2,9.5,3.1,16.1,0.1 c6.2-2.8,14.1-0.6,17.3,0.7c0.9,0.4,1.4,1.2,1.3,2.2c-0.3,3.2-1,12.7-0.9,13.9c0,0,1,4,3.4,7c1.7-5.7,7-9.1,11.9-7.8 c5,1.4,7.7,7.2,6.1,13c-1.4,5-5.6,8.3-10,8.2c0.9,2.3,1.8,4.3,2.5,5.2c3.1,4.2,8.3,2.7,8.3,2.7l0.4,7.7l0,0l1.7,13.5 c0.1,1.1,0.7,2.1,1.5,2.8l5.2,4.4c0,0-14.3,46.5-14.3,46.5c-0.3,2.9-3.5,3.5-5.1,1.1l-22.6-35.9l-22.3,32.4c-1,1.6-3.3,1.1-3.5-0.8 l4.7-27.7c1-6.2,5.8-27.7,5.8-27.7l0.1,0C235.3,150.3,230.6,149.8,229.1,147.9z M306.8,336c3-11.4,12.3-52,12.3-52l0,0l26.3,6.9 l8.8-53.9l-17.4-2.8l-1.7-23.7l-92.5,6.7l3.7,51.5c-2-0.3-3.6-0.6-4-0.7c-0.9-0.3-1.9-0.6-2.9-0.3c-1.9,0.6-2.2,2.8-2.2,4.5 c0,2.1,0.5,4.3,1.5,6.2c0.2,0.4,1.9,0.9,2.1,1.3c0.3,0.6,0.2,0.8,0,1.4c-0.3,0.9-0.5,1.8-0.6,2.7c-0.3,3.4,2.7,6.9,5,9.5 c-1.9,2.8,0.8,9.1,3.7,12.6l0,0.3l-6.7,41.4l91.6,14.9l2.5-15.3l0,0L306.8,336z M271.2,236.2l70.1,11.4l-1.7,10.7l-70.1-11.4 L271.2,236.2z M149.9,217.4l1.7,20.2c0,0-53.5,9.3-53.4,8.6l0.8-19.7c0-1,0.8-1.9,1.7-2l6.6-1.3c-0.3-4.6-0.8-10.1-1.1-11.2 c-0.5-1.7-2.6-2.7-4-3.7c-6.8-4.9-13.9-9.7-20.5-15c-0.3-0.2-6.5-12.7-8-19c-0.6-2.7-1.4-6.3,1.5-8c1.1-0.7,2.2-0.7,3.2-0.3 c-0.2-2.7,0.8-5.3,4.1-6c3.5-0.8,6.2,1.2,8.3,3.7c1-1.6,3-2.5,5.1-2.4c3.6,0.2,6.5,2.7,8.4,5.6c2.3,3.4,3.7,7.5,5.2,11.4 c0.7,1.8,4.8,17.4,4.8,17.4s0.1-18.1-0.2-21.1c-0.6-6.6,8.2-5.7,9.2,2.2c0.2,1.7,0.5,3.5,0.8,5.2c0.4,2.8,0.6,6.4,2.9,8.5 c2.3,2.1,5.9,2,8.7,3.1c5.6,2.1,7.6,2,9.1,7.5c0.8,2.9,1.3,8.8,1.6,14.5l1.1-0.2C148.6,215.2,149.8,216.1,149.9,217.4z" style="fill: rgb(255, 255, 255);"/></g><g id="__id91_sb5zsaz3fr"><path d="M298.8,93.5c-3.6,18.8-11.9,40.6-11.9,40.6s-5.2,1.5-8.3-2.7c-0.7-1-1.6-3-2.5-5.2c4.3,0.1,8.6-3.2,10-8.2 c1.6-5.8-1.1-11.6-6.1-13c-4.9-1.4-10.2,2.1-11.9,7.8c-2.4-2.9-3.4-7-3.4-7c-0.1-1.2,0.6-10.7,0.9-13.9c0.1-0.9-0.4-1.8-1.3-2.2 c-3.3-1.4-11.1-3.6-17.3-0.7c-6.6,3-13.2,1.1-16.1-0.1c-0.7-0.3-3.2,0.3-3.3,1.1c0,3.6-0.1,7.3-0.1,7.3s-3.2-2.1-4.3-6.7 c-0.3-1.2-0.8-5.3-0.6-7.2c-1.6-5.5-1.2-11.6,2.3-16.4c1.7-2.3,8.2-6.2,16.6-5.5c-0.1-1.4,0.2-2.7,1.3-4c2-2.4,5.4-2.9,8.4-2.8 c5.7,0.2,11.1,3,14.3,7.7c2.5,0.1,5,0.2,7.6,0.4C293.5,64.5,301.7,78.1,298.8,93.5z M341.4,247.6l-70.1-11.4l-1.7,10.7l70.1,11.4 L341.4,247.6z M53.3,18.9v25c0,0.9,0.7,1.6,1.6,1.6h25c0.9,0,1.6-0.8,1.6-1.7c-0.8-14.3-12.2-25.7-26.5-26.5 C54,17.3,53.3,18,53.3,18.9z M127.1,95.1V56.4c0-2.9-2.4-5.3-5.3-5.3l0,0c-2.9,0-5.3,2.4-5.3,5.3v38.7c0,2.9,2.4,5.3,5.3,5.3l0,0 C124.7,100.3,127.1,98,127.1,95.1z M166.2,95.1V75.5c0-2.9-2.4-5.3-5.3-5.3l0,0c-2.9,0-5.3,2.4-5.3,5.3v19.6c0,2.9,2.4,5.3,5.3,5.3 l0,0C163.9,100.3,166.2,98,166.2,95.1z" style="fill: rgb(30, 64, 175);"/></g><g id="__id92_sb5zsaz3fr"><path d="M272.9,352.5l-0.2,8.1l-66.7-0.7c0,0,3.2-86.3,6.1-115c2.7-26.5,17.7-82.2,17.7-82.2c2.8-1,5-1.7,6.2-2.1 c-1.4,6.5-3,14.2-3.5,17.5l-4.7,27.7c0.2,1.9,2.5,2.4,3.5,0.8l19.3-28l-7.5,10.9l-0.3,14c-11.6,39.4-14.8,130.3-14.6,130.8 l10.7,16.4c0.4,0.6,1.3,0.7,1.7,0.1l2.4-3.2L272.9,352.5z M261.9,187.6l2.1,3.4l0,0L261.9,187.6z M255.9,216.1l27.3-2l12.4-51.6 c0,0-14.3,46.5-14.3,46.5c-0.3,2.9-3.5,3.5-5.1,1.1l-12.1-19.2l-7.6,13.9C256.3,206.9,256.1,210.9,255.9,216.1z M253.7,174.5 l-0.2-0.3l-0.3,0.4C253.4,174.5,253.6,174.5,253.7,174.5z M106.8,95.1V31.7c0-2.9-2.4-5.3-5.3-5.3l0,0c-2.9,0-5.3,2.4-5.3,5.3v63.4 c0,2.9,2.4,5.3,5.3,5.3l0,0C104.4,100.3,106.8,98,106.8,95.1z M147.4,95.1v-29c0-2.9-2.4-5.3-5.3-5.3l0,0c-2.9,0-5.3,2.4-5.3,5.3v29 c0,2.9,2.4,5.3,5.3,5.3l0,0C145,100.3,147.4,98,147.4,95.1z" style="fill: rgb(233, 152, 66);"/></g><g id="__id93_sb5zsaz3fr"><path d="M387.2,289.4c-2.9-11.1-5.9-21.1-8.7-30.8c-5.4-18.5-10.5-35.9-14.9-58.2c-1.7-8.2-13.1-17.1-34.1-26.2 c-6.9-3-18.2-7.5-33.5-12.2l-5.1-4.4c-0.7-0.6-1.2-1.5-1.3-2.4l-1.7-13.5c0-0.3-0.2-0.5-0.5-0.6c-0.3-0.1-0.5,0-0.7,0.3 c-0.2,0.3-19,25.7-33.1,23.3c-5.3-0.9-9.4-5.8-12-14.5c-0.1-0.3-0.3-0.5-0.6-0.5l-2.7,0c-0.4,0-0.6,0.2-0.7,0.5c0,0.1-1,4.5-2.1,9.9 C227,163,183,178,178.2,183c-2.2,2.3-9.6,16.9-18.6,47.5l-7.5,13l-0.4-5.2c-0.5,0.1-0.9,0.2-1.3,0.2l0,0 c-29.8,5.2-42.7,7.2-48.2,7.9c1,9,2.7,25.8,4.5,52.2c0.4,6.7,10.7,16.5,20.6,22.6c4.4,2.7,15.2,8.8,21.4,6.2 c10.2-4.2,36.3-21.7,39.1-29.3c0-0.1,0.1-0.1,0.1-0.2l1.4,14l-9.9,84.9c0,0.2,0,0.4,0.2,0.5c0.1,0.1,0.3,0.2,0.5,0.2c0,0,0,0,0,0 l13.2-0.6c0.3,0,0.5-0.2,0.6-0.4l1.4-3.8l92.9-0.2l2.4,4.8c0.1,0.2,0.3,0.4,0.6,0.4h51c0.2,0,0.4-0.1,0.5-0.2 c0.1-0.1,0.2-0.3,0.2-0.5L337,348c27.3,7.2,43,6.9,50.9-1C397.4,337.5,394.5,317.1,387.2,289.4z M238.7,151.1l1.7,0 c2.8,8.9,7.2,14,13,14.9c6.3,1.1,14-2.6,23-11c4.8-4.5,8.7-9.3,10.5-11.5l1.5,11.8c0.2,1.3,0.8,2.4,1.7,3.2l4.8,4.2l-14.2,46.1 c0,0,0,0.1,0,0.1c-0.1,1-0.7,1.7-1.4,1.9c-0.9,0.2-1.8-0.2-2.4-1.1l-22.6-35.9c-0.1-0.2-0.3-0.3-0.6-0.3c0,0,0,0,0,0 c-0.2,0-0.4,0.1-0.6,0.3l-22.3,32.4c-0.4,0.6-1,0.7-1.4,0.6c-0.5-0.1-0.8-0.5-0.9-1l4.7-27.6C234,172.7,238,154.5,238.7,151.1z M195.6,391.4l10.9-30.8l65.8,0.7l15.1,29.8L195.6,391.4z M345.3,290.9l-26.3-6.9h0c0,0-9.2,40.6-12.3,52l29.4,11.1l0,0 c0.2,0.1,0.5,0.1,0.7,0.2l-0.4,2.4l-0.3-2.5l-2.5,15.3l-60.8-9.9l-0.2,7.4c0,0,0,0,0,0l-66.6-0.7c0.1-1.7,0.2-6.3,0.5-13l0,0 c0-0.4,0-0.9,0.1-1.4l0,0c1.1-26,3.4-78.8,5.5-100c2.5-24.7,15.7-74.6,17.5-81.4c1.9-0.7,3.7-1.3,5.5-1.9 c-1.3,6.2-2.8,13.3-3.3,16.4l-4.7,27.7c0,0.1,0,0.1,0,0.2c0.1,1.2,0.9,2.1,1.9,2.3c1.1,0.3,2.2-0.2,2.8-1.2l11.2-16.2l-0.3,12.7 c-11.6,39.4-14.8,130.3-14.6,130.8l10.7,16.4c0.4,0.6,1.3,0.7,1.7,0.1l2.4-3.2l-0.6-0.1l6.7-41.4l0-0.3c-3-3.5-5.7-9.7-3.7-12.6 c-2.3-2.5-5.4-6-5-9.5c0.1-1,0.3-1.8,0.6-2.7c0.2-0.7,0.3-0.8,0-1.4c-0.2-0.5-1.8-0.9-2.1-1.3c-1-1.9-1.5-4-1.5-6.2 c0-1.7,0.3-3.9,2.2-4.5c1-0.3,2,0,2.9,0.3c0.4,0.1,2,0.4,4,0.7l-3.7-51.5l13.5-1c0.2-5.2,0.4-9.2,0.5-11.3l7.2-13.2l11.9,18.9 c0.8,1.2,2,1.8,3.1,1.8c0.3,0,0.5,0,0.8-0.1c1.3-0.3,2.2-1.5,2.4-3l11.2-36.3l-9.9,41.2l51.8-3.7l1.7,23.7l17.4,2.8L345.3,290.9z M54.8,92.4v1.3c0,4.8-3.9,8.6-8.6,8.6s-8.6-3.9-8.6-8.6v-1.3c0-0.9,0.7-1.6,1.6-1.6h14.1C54.1,90.8,54.8,91.5,54.8,92.4z M74.4,53.2c-0.7,11.5-8.2,21.1-18.5,24.9c-0.6,0.2-1,0.8-1,1.5v3.7c0,0.9-0.7,1.6-1.6,1.6H39.2c-0.9,0-1.6-0.7-1.6-1.6v-3.7 c0-0.7-0.4-1.3-1-1.5C25.7,74.2,18,63.8,18,51.6c0-15,11.7-27.3,26.6-28.2c0.9-0.1,1.7,0.7,1.7,1.6v25c0,0.9,0.7,1.6,1.6,1.6h25 C73.7,51.6,74.5,52.3,74.4,53.2z" style="fill: rgb(30, 64, 175);"/></g><g id="__id94_sb5zsaz3fr"><path d="M188.1,10.5c0-5.8-4.7-10.5-10.5-10.5H10.5C4.7,0,0,4.7,0,10.5v103.3c0,5.8,4.7,10.5,10.5,10.5h53.7c1.9,0,3.7,0.7,5,2.1 l20.6,20.5c1.7,1.6,3.8,2.5,6,2.5s4.3-0.8,6-2.5l20.6-20.5c1.3-1.3,3.1-2.1,5-2.1h50.3c5.8,0,10.5-4.7,10.5-10.5L188.1,10.5 L188.1,10.5z M186.7,113.8c0,5-4.1,9.1-9.1,9.1h-50.3c-2.3,0-4.4,0.9-6,2.5l-20.6,20.5c-2.8,2.7-7.2,2.7-10,0l-20.6-20.5 c-1.6-1.6-3.7-2.5-6-2.5H10.5c-5,0-9.1-4.1-9.1-9.1V10.5c0-5,4.1-9.1,9.1-9.1h167.2c5,0,9.1,4.1,9.1,9.1L186.7,113.8L186.7,113.8z M192.1,205.5l-3.4,89.9c0,0.4-0.3,0.7-0.7,0.7c0,0,0,0,0,0c-0.4,0-0.7-0.3-0.7-0.7l3.4-89.9c0-0.4,0.4-0.7,0.7-0.7 C191.9,204.8,192.2,205.1,192.1,205.5z M152.3,237.5l-1.7-20.2c-0.1-0.8-0.5-1.6-1.1-2.1c-0.6-0.5-1.4-0.7-2.2-0.5l-0.3,0.1 c-0.4-5.5-0.9-11.1-1.6-13.9c-1.3-5.1-3.4-5.9-7.4-7.3c-0.6-0.2-1.3-0.5-2.1-0.7c-1-0.4-2.1-0.6-3.2-0.9c-1.9-0.4-3.9-0.9-5.3-2.1 c-1.8-1.6-2.2-4.4-2.5-6.9c-0.1-0.4-0.1-0.8-0.2-1.2c-0.1-0.6-0.2-1.2-0.3-1.8c-0.2-1.1-0.4-2.3-0.5-3.4c-0.6-4.9-4.1-7.4-7-7.1 c-1.8,0.2-3.8,1.6-3.5,5.1c0.2,1.9,0.2,10.1,0.2,15.6c-1.3-4.7-3-11.1-3.4-12.3l-0.5-1.2c-1.3-3.5-2.7-7.2-4.8-10.3 c-1.4-2.1-4.4-5.7-9-5.9c-2-0.1-3.9,0.7-5.1,2c-2.6-2.9-5.4-4-8.4-3.3c-2.9,0.6-4.5,2.7-4.7,5.8c-1-0.1-1.9,0.1-2.8,0.6 c-3.4,2.1-2.4,6.4-1.8,8.8c1.5,6.1,7.7,18.9,8.3,19.4c4.8,3.9,9.9,7.5,14.9,11c1.9,1.3,3.8,2.6,5.6,4c0.3,0.2,0.6,0.4,0.9,0.6 c1.1,0.7,2.4,1.6,2.8,2.7c0.3,0.9,0.7,5.5,1,10.4l-6,1.1c0,0,0,0,0,0c-1.3,0.2-2.2,1.4-2.3,2.7L97.5,246c0,0.2,0,0.5,0.2,0.6 c0.1,0.1,0.2,0.1,0.7,0.1c2.1,0,11.1-1.2,53.3-8.5C152.1,238.2,152.4,237.9,152.3,237.5z M103.6,208.3c-0.3-0.2-0.6-0.4-0.9-0.6 c-1.9-1.3-3.7-2.7-5.6-4c-4.9-3.5-10-7.1-14.8-10.9c-0.7-1.1-6.4-12.8-7.9-18.7c-0.7-2.8-1.2-5.8,1.1-7.3c0.7-0.4,1.5-0.5,2.2-0.3 c0.9,2.8,6.3,19.5,10,23.4c0.1,0.1,0.3,0.2,0.5,0.2c0.2,0,0.4-0.1,0.5-0.2c0.3-0.3,0.3-0.7,0-1c-3.6-3.8-9.3-21.7-9.8-23.1 c-0.1-2,0.4-4.5,3.5-5.2c2.7-0.6,5,0.5,7.5,3.4c0.5,1.8,4.9,17.6,7.5,22c0.1,0.2,0.4,0.4,0.6,0.4c0.1,0,0.2,0,0.3-0.1 c0.3-0.2,0.5-0.6,0.3-1c-2.4-4.2-6.6-19.1-7.3-21.5c0.9-1.2,2.6-2,4.3-1.8c3.9,0.2,6.6,3.4,7.9,5.3c2,3,3.3,6.6,4.6,10l0.5,1.2 c0.7,1.8,4.7,17.2,4.8,17.4c0.1,0.3,0.4,0.6,0.8,0.5c0.4,0,0.6-0.3,0.6-0.7c0-0.7,0.1-18.1-0.2-21.1c-0.2-2.1,0.7-3.4,2.3-3.6 c2.3-0.2,5,2,5.5,5.9c0.1,1.2,0.3,2.3,0.5,3.5c0.1,0.6,0.2,1.2,0.3,1.7c0.1,0.4,0.1,0.8,0.2,1.2c0.4,2.7,0.8,5.8,3,7.7 c1.6,1.5,3.8,2,6,2.4c1.1,0.2,2.1,0.5,3,0.8c0.8,0.3,1.5,0.5,2.1,0.8c4,1.4,5.4,1.9,6.5,6.3c0.7,2.7,1.2,8.3,1.6,13.8l-37.6,7.2 c-0.3-4.5-0.7-9.5-1.1-10.5C106.4,210.2,104.9,209.2,103.6,208.3z M98.9,245.4l0.8-18.9c0-0.7,0.5-1.3,1.1-1.4l46.7-8.9 c0.4-0.1,0.7,0,1,0.2c0.3,0.2,0.5,0.6,0.6,1.1l1.7,19.5C131.6,240.3,103.6,245,98.9,245.4z M152.3,245.6l4.1,31.5 c0.1,0.4-0.2,0.7-0.6,0.8c0,0-0.1,0-0.1,0c-0.4,0-0.7-0.3-0.7-0.6l-4.1-31.5c-0.1-0.4,0.2-0.7,0.6-0.8 C151.9,244.9,152.3,245.2,152.3,245.6z M245.3,113.1c-1.7-0.2-1.6-3.2-0.5-4.3c0.9-0.9,1.5-0.4,1.8,0.2c0.3,0.6,0.4,1.3,0.3,2 C246.8,112,246.4,113.3,245.3,113.1z M243.5,102.5c-0.4,0.1-0.8-0.1-0.9-0.5c-0.1-0.4,0.1-0.8,0.5-0.9c6.7-2.2,10.7,2.3,10.8,2.5 c0.3,0.3,0.2,0.8-0.1,1.1c-0.1,0.1-0.3,0.2-0.5,0.2c-0.2,0-0.4-0.1-0.6-0.3C252.6,104.4,249.3,100.7,243.5,102.5z M232.2,107.3 c0.3,0.6,0.4,1.3,0.3,2c-0.1,0.9-0.6,2.2-1.6,2.1c-1.7-0.2-1.6-3.2-0.5-4.3C231.3,106.1,231.8,106.6,232.2,107.3z M238.9,106.1 c-3.3,7.9-5.9,16.9-4.4,18.3c2.4,2.2,6.6,0.6,6.6,0.6c0.4-0.2,0.8,0,1,0.4c0.2,0.4,0,0.8-0.4,1c-0.1,0-1.8,0.7-3.8,0.7 c-1.5,0-3.1-0.3-4.4-1.5c-3-2.7,2.8-17.1,4-20c0.2-0.4,0.6-0.6,1-0.4C238.9,105.3,239.1,105.8,238.9,106.1z M237.6,135.3 c0-0.4,0.4-0.7,0.8-0.7c6.9,0.8,11-5.3,11-5.4c0.2-0.3,0.7-0.4,1-0.2s0.4,0.7,0.2,1c-0.2,0.3-4.1,6.1-11,6.1c-0.5,0-0.9,0-1.4-0.1 C237.8,136.1,237.5,135.8,237.6,135.3z M367.5,296l-21.4-5.6l8.7-53.3c0.1-0.4-0.2-0.7-0.6-0.8l-16.9-2.7l-1.7-23.2 c0-0.2-0.1-0.4-0.2-0.5s-0.3-0.2-0.5-0.2l-92.5,6.7c-0.4,0-0.7,0.4-0.7,0.8l3.7,50.6c-1.5-0.3-2.7-0.5-3-0.6l-0.2-0.1 c-0.9-0.3-2-0.6-3.1-0.2c-2.7,0.8-2.7,4-2.7,5.2c0,2.3,0.5,4.5,1.6,6.5c0.2,0.4,0.7,0.7,1.3,1c0.2,0.1,0.7,0.3,0.7,0.3 c0.1,0.3,0.1,0.3,0,0.7l-0.1,0.2c-0.2,0.9-0.5,1.8-0.6,2.9c-0.4,3.6,2.8,7.3,4.9,9.6c-0.6,1.2-0.6,2.8-0.2,4.7 c0.6,2.8,2.3,5.9,4.1,8.1l-6.7,41.3c0,0.2,0,0.4,0.1,0.5c0.1,0.2,0.3,0.3,0.5,0.3l91.6,14.9c0,0,0.1,0,0.1,0c0.1,0,0.3,0,0.4-0.1 c0.2-0.1,0.3-0.3,0.3-0.5l2.5-15.6l-0.7,0.1l-0.7-0.3l-2.4,14.8L243,347l6.4-39.6c0.3,0.3,0.6,0.5,0.8,0.7c-1.1,1.7-1.4,3.2-1,4.7 c0.6,2,2.8,3.7,6.5,5c1.8,0.6,8.6,1.3,15.1,2c3.8,0.4,7.3,0.8,9.2,1.1c0.7,0.1,1.4,0.4,2,0.7l4.8,3.1l-0.7,3.5 c-0.3,1.3,0.4,2.6,1.6,3.2l17.8,8.2c0.1,0.1,0.3,0.1,0.4,0.1c0.1,0,0.2,0,0.3-0.1c0.5-0.2,1.1-0.5,13.4-54.8l47.5,12.5 c0.1,0,0.1,0,0.2,0c0.3,0,0.6-0.2,0.7-0.5C368.1,296.5,367.9,296.1,367.5,296z M243.2,217.7l91.1-6.6l1.6,22.1l-73.2-11.9 c-0.2,0-0.4,0-0.5,0.1c-0.2,0.1-0.3,0.3-0.3,0.5l-7.7,47.3c-2.1-0.3-5-0.8-7.3-1.2L243.2,217.7z M282.8,320.4 c-0.8-0.5-1.6-0.8-2.5-0.9c-1.9-0.3-5.5-0.7-9.3-1.1c-5.9-0.6-13.2-1.4-14.8-2c-3.2-1.1-5.1-2.5-5.6-4c-0.3-1.1,0-2.3,0.9-3.7 c2.1,0.3,11,1.7,14.6,2.2c0,0,0.1,0,0.1,0c0.3,0,0.7-0.3,0.7-0.6c0.1-0.4-0.2-0.7-0.6-0.8c-3.8-0.5-13.5-2.1-14.8-2.3 c-2.1-1.3-5.1-5.6-6-9.6c-0.4-1.6-0.3-2.8,0.1-3.7c2.9,0.3,18,1.7,24,2.1c0,0,0,0,0.1,0c0.4,0,0.7-0.3,0.7-0.7 c0-0.4-0.3-0.7-0.7-0.8c-6.2-0.5-21.9-1.9-24.2-2.1c-1.9-2.2-5-5.6-4.7-8.7c0.1-0.9,0.3-1.8,0.6-2.6l0.1-0.2 c0.1-0.2,0.1-0.4,0.1-0.6c3.7,0.5,17.5,2.2,22.7,3.3c0,0,0.1,0,0.1,0c0.3,0,0.6-0.2,0.7-0.6c0.1-0.4-0.2-0.8-0.5-0.8 c-5.7-1.2-21.3-3.2-23.5-3.4c-0.3-0.2-0.7-0.4-1.1-0.6c-0.2-0.1-0.6-0.3-0.7-0.3c-1-1.8-1.4-3.8-1.4-5.8c0,0,0,0,0,0 c0-2.3,0.5-3.5,1.7-3.8c0.2-0.1,0.4-0.1,0.6-0.1c0.5,0,1.1,0.2,1.7,0.3l0.2,0.1c1.4,0.4,13.3,2.2,13.8,2.3c0.2,0,0.5,0,0.6-0.2 c1.3-1.4,5-5.1,6.4-5.9c3.2-1.8,6.5-0.8,8.1,0.9c3.6,3.6,12.4,11.7,12.4,11.8c0.1,0.1,0.1,0.1,0.2,0.1l12,5.1l-8.5,40.5L282.8,320.4 z M305.5,338l-17.2-7.9c-0.6-0.3-1-1-0.8-1.6l10.2-48.6c0.1-0.4,0.3-0.8,0.7-1c0.2-0.1,0.5-0.2,0.7-0.2c0.1,0,0.3,0,0.4,0.1 l18.7,5.7C313.7,304.4,307,333.5,305.5,338z M319.3,283.3l-19.3-5.9c-0.8-0.2-1.6-0.1-2.3,0.3s-1.2,1.1-1.4,1.9l-0.4,1.8l-11.6-4.9 c-0.9-0.9-9-8.3-12.3-11.7c-2-2.1-6-3.3-9.8-1.1c-1.7,0.9-5.4,4.8-6.5,5.9c0,0-0.1,0-0.1,0l7.6-46.5l90.2,14.7l-8.5,52.5 L319.3,283.3z M237.4,151.1c-3.1-0.2-7.3-0.8-8.9-2.8c-2.9-3.8-3.4-22.5-1.9-37.6l0.2-13.5c0,0,0.1-3.7,0.1-7.3 c0-0.3,0.1-0.7,0.7-1.1c0.8-0.6,2.7-1,3.5-0.6c2.5,1,9.1,3.1,15.6,0.1c7.5-3.4,16.8,0.3,17.9,0.7c1.2,0.5,1.8,1.7,1.7,2.9 c-0.3,3.2-1,12.4-0.9,13.7c0.1,0.4,0.9,3.2,2.5,5.6c2.2-5.2,7.4-8.3,12.3-6.9c2.6,0.7,4.7,2.6,6,5.2c1.2,2.6,1.4,5.7,0.6,8.6 c-1.4,4.8-5.3,8.3-9.6,8.7c1,2.5,1.6,3.6,2,4.1c2.7,3.7,7.3,2.5,7.5,2.5c0.2-0.1,0.4,0,0.6,0.1c0.2,0.1,0.3,0.3,0.3,0.5l0.4,8.1 c0-0.2,0-0.4-0.1-0.4c0-0.1,0-0.4-0.3-0.5s-0.4-0.1-0.6-0.1c-0.2,0-0.3,0.2-0.3,0.2l-0.2,0.2l-0.3-6.7c-1.7,0.2-5.6,0.3-8.2-3.2v0 c-0.7-0.9-1.5-2.7-2.6-5.4c-0.1-0.2-0.1-0.5,0.1-0.7c0.1-0.2,0.3-0.3,0.6-0.3c4.1,0.1,8-3.1,9.3-7.7c0.7-2.6,0.6-5.3-0.5-7.6 c-1.1-2.3-2.9-3.8-5.1-4.5c-4.5-1.3-9.5,2-11,7.3c-0.1,0.2-0.3,0.4-0.5,0.5c-0.3,0.1-0.5,0-0.7-0.2c-2.5-3-3.5-7.1-3.6-7.2 c0,0,0-0.1,0-0.1c-0.1-1.3,0.6-10.9,0.9-14.1c0.1-0.6-0.3-1.2-0.8-1.4c-1-0.4-9.8-3.9-16.7-0.7c-7,3.2-14,1-16.7-0.1 c-0.4-0.2-1.9,0.2-2.3,0.5c0,3.6-0.1,7.2-0.1,7.2l0,0.5c5.1-0.5,8.1,2.9,8.2,3c0.3,0.3,0.2,0.8-0.1,1.1c-0.1,0.1-0.3,0.2-0.5,0.2 c-0.2,0-0.4-0.1-0.6-0.3c-0.1-0.1-2.6-2.9-7.1-2.5l-0.2,11.6c-1.6,16.1-0.8,33.6,1.6,36.6c1.3,1.6,5.7,2.2,8.8,2.3 c-0.1,0-0.2,0-0.2,0c-0.6,0-0.7,0.5-0.7,0.5L237.4,151.1z" style="fill: inherit;"/></g></svg>